<?xml version="1.0" standalone="no"?>
<!DOCTYPE svg PUBLIC "-//W3C//DTD SVG 1.1//EN" "http://www.w3.org/Graphics/SVG/1.1/DTD/svg11.dtd" >
<svg>
<metadata>
Created by FontForge 20090914 at Fri May  5 12:45:39 2017
 By www-data
Copyright Kenney 2013
</metadata>
<defs>
<font id="KenVector-Future-Thin" horiz-adv-x="724" >
  <font-face 
    font-family="KenVector Future Thin"
    font-weight="400"
    font-stretch="normal"
    units-per-em="1024"
    panose-1="0 0 4 0 0 0 0 0 0 0"
    ascent="819"
    descent="-205"
    x-height="640"
    cap-height="640"
    bbox="-128 -256 896.002 896.001"
    underline-thickness="51"
    underline-position="126"
    unicode-range="U+0020-U+FB06"
  />
<missing-glyph horiz-adv-x="468" 
d="M320 90v102h-102v-102h102zM421 209v102h-203v-102h203zM320 328v102h-102v-102h102zM421 447v101h-101c-28.667 0 -52.667 -9.66699 -72 -29c-20 -20.667 -30 -44.667 -30 -72h203zM0 0v640h640v-640h-640z" />
    <glyph glyph-name=".notdef" horiz-adv-x="468" 
d="M320 90v102h-102v-102h102zM421 209v102h-203v-102h203zM320 328v102h-102v-102h102zM421 447v101h-101c-28.667 0 -52.667 -9.66699 -72 -29c-20 -20.667 -30 -44.667 -30 -72h203zM0 0v640h640v-640h-640z" />
    <glyph glyph-name="space" unicode=" " horiz-adv-x="256" 
 />
    <glyph glyph-name="exclam" unicode="!" horiz-adv-x="340" 
d="M0 0v128h128v-128h-128zM0 256v384h128v-384h-128z" />
    <glyph glyph-name="quotedbl" unicode="&#x22;" horiz-adv-x="596" 
d="M0 384v256h128v-256h-128zM256 384v256h128v-256h-128z" />
    <glyph glyph-name="numbersign" unicode="#" horiz-adv-x="852" 
d="M384 256v128h-128v-128h128zM128 0v128h-128v128h128v128h-128v128h128v128h128v-128h128v128h128v-128h128v-128h-128v-128h128v-128h-128v-128h-128v128h-128v-128h-128z" />
    <glyph glyph-name="dollar" unicode="$" horiz-adv-x="852" 
d="M512 128v128h-128v-128h128zM256 384v128h-128v-128h128zM0 0l0.000976562 128.001h256v128h-128c-36 0 -66.333 12.333 -91 37c-24.667 25.333 -37 55.666 -37 90.999v128c0 35.333 12.333 65.333 37 90c25.333 25.333 55.666 38 90.999 38h512v-128h-256v-128h128
c35.333 0 65.333 -12.667 90 -38c25.333 -25.333 38 -55.333 38 -90v-128c0 -36 -12.667 -66.333 -38 -91s-55.333 -37 -90 -37h-512z" />
    <glyph glyph-name="percent" unicode="%" horiz-adv-x="596" 
d="M256 0v128h128v-128h-128zM0 512v128h128v-128h-128zM0 0l0.000976562 256c0 35.333 12.333 65.333 37 90c25.333 25.333 55.666 38 90.999 38h128v256h128v-256c0 -36 -12.667 -66.333 -38 -91s-55.333 -37 -90 -37h-128v-256h-128z" />
    <glyph glyph-name="ampersand" unicode="&#x26;" horiz-adv-x="852" 
d="M384 128v128h-256v-128h256zM384 384v128h-128v-128h128zM0 0v384h128v256h256c35.333 0 65.333 -12.667 90 -38c25.333 -25.333 38 -55.333 38 -90v-128c0 -18 -6.33301 -33.333 -19 -46c-12.667 -12 -27.667 -18 -45 -18c17.333 0 32.333 -6.33301 45 -19
s19 -27.667 19 -45v-128h128c0 -36 -12.667 -66.333 -38 -91s-55.333 -37 -90 -37h-512z" />
    <glyph glyph-name="quotesingle" unicode="'" horiz-adv-x="340" 
d="M0 384v256h128v-256h-128z" />
    <glyph glyph-name="parenleft" unicode="(" horiz-adv-x="468" 
d="M128 0c-36 0 -66.332 12.334 -90.999 37.001c-24.667 25.333 -37 55.666 -37 90.999v384c0 35.333 12.333 65.333 37 90c25.333 25.333 55.666 38 90.999 38h128v-128h-128v-384h128v-128h-128z" />
    <glyph glyph-name="parenright" unicode=")" horiz-adv-x="468" 
d="M0 0v128h128v384h-128v128h128c35.333 0 65.333 -12.667 90 -38c25.333 -25.333 38 -55.333 38 -90v-384c0 -36 -12.667 -66.333 -38 -91s-55.333 -37 -90 -37h-128z" />
    <glyph glyph-name="asterisk" unicode="*" horiz-adv-x="596" 
d="M128 256l0.000976562 128.001c-36 0 -66.333 12.333 -91 37c-24.667 25.333 -37 55.666 -37 90.999h128c0 35.333 12.333 65.333 37 90c25.333 25.333 55.666 38 90.999 38v-128c35.333 0 65.333 -12.667 90 -38c25.333 -25.333 38 -55.333 38 -90h-128
c0 -36 -12.667 -66.333 -38 -91s-55.333 -37 -90 -37v0z" />
    <glyph glyph-name="plus" unicode="+" horiz-adv-x="852" 
d="M256 0v256h-256v128h256v256h128v-256h256v-128h-256v-256h-128z" />
    <glyph glyph-name="comma" unicode="," horiz-adv-x="340" 
d="M0 -128v256h128v-128c0 -35.333 -12.667 -65.333 -38 -90c-25.333 -25.333 -55.333 -38 -90 -38v0z" />
    <glyph glyph-name="hyphen" unicode="-" 
d="M0 256v128h512v-128h-512z" />
    <glyph glyph-name="period" unicode="." horiz-adv-x="340" 
d="M0 0v128h128v-128h-128z" />
    <glyph glyph-name="slash" unicode="/" horiz-adv-x="468" 
d="M0 0l0.000976562 256c0 35.333 12.333 65.333 37 90c25.333 25.333 55.666 38 90.999 38v256h128v-256c0 -36 -12.667 -66.333 -38 -91s-55.333 -37 -90 -37v-256h-128z" />
    <glyph glyph-name="zero" unicode="0" 
d="M384 128v384h-256v-384h256zM128 0c-36 0 -66.332 12.334 -90.999 37.001c-24.667 25.333 -37 55.666 -37 90.999v384c0 35.333 12.333 65.333 37 90c25.333 25.333 55.666 38 90.999 38h256c35.333 0 65.333 -12.667 90 -38c25.333 -25.333 38 -55.333 38 -90v-384
c0 -36 -12.667 -66.333 -38 -91s-55.333 -37 -90 -37h-256z" />
    <glyph glyph-name="one" unicode="1" horiz-adv-x="468" 
d="M128 0v512h-128v128h128c35.333 0 65.333 -12.667 90 -38c25.333 -25.333 38 -55.333 38 -90v-512h-128z" />
    <glyph glyph-name="two" unicode="2" 
d="M0 0l0.000976562 256c0 35.333 12.333 65.333 37 90c25.333 25.333 55.666 38 90.999 38h256v128h-384v128h384c35.333 0 65.333 -12.667 90 -38c25.333 -25.333 38 -55.333 38 -90v-128c0 -36 -12.667 -66.333 -38 -91s-55.333 -37 -90 -37h-256v-128h384v-128h-512z
" />
    <glyph glyph-name="three" unicode="3" 
d="M0 0v128h384v128h-384v128h384v128h-384v128h384c35.333 0 65.333 -12.667 90 -38c25.333 -25.333 38 -55.333 38 -90v-384c0 -36 -12.667 -66.333 -38 -91s-55.333 -37 -90 -37h-384z" />
    <glyph glyph-name="four" unicode="4" 
d="M384 0v256.001h-256c-36 0 -66.333 12.333 -91 37c-24.667 25.333 -37 55.666 -37 90.999v256h128v-256h256v256h128v-640h-128z" />
    <glyph glyph-name="five" unicode="5" 
d="M0 0l0.000976562 128.001h384v128h-256c-36 0 -66.333 12.333 -91 37c-24.667 25.333 -37 55.666 -37 90.999v128c0 35.333 12.333 65.333 37 90c25.333 25.333 55.666 38 90.999 38h384v-128h-384v-128h256c35.333 0 65.333 -12.667 90 -38
c25.333 -25.333 38 -55.333 38 -90v-128c0 -36 -12.667 -66.333 -38 -91s-55.333 -37 -90 -37h-384z" />
    <glyph glyph-name="six" unicode="6" 
d="M384 128v128h-256v-128h256zM128 0c-36 0 -66.332 12.334 -90.999 37.001c-24.667 25.333 -37 55.666 -37 90.999v384c0 35.333 12.333 65.333 37 90c25.333 25.333 55.666 38 90.999 38h384v-128h-384v-128h256c35.333 0 65.333 -12.667 90 -38
c25.333 -25.333 38 -55.333 38 -90v-128c0 -36 -12.667 -66.333 -38 -91s-55.333 -37 -90 -37h-256z" />
    <glyph glyph-name="seven" unicode="7" 
d="M384 0v512h-384v128h384c35.333 0 65.333 -12.667 90 -38c25.333 -25.333 38 -55.333 38 -90v-512h-128z" />
    <glyph glyph-name="eight" unicode="8" 
d="M384 128v128h-256v-128h256zM384 384v128h-256v-128h256zM128 0c-36 0 -66.332 12.334 -90.999 37.001c-24.667 25.333 -37 55.666 -37 90.999v384c0 35.333 12.333 65.333 37 90c25.333 25.333 55.666 38 90.999 38h256c35.333 0 65.333 -12.667 90 -38
c25.333 -25.333 38 -55.333 38 -90v-384c0 -36 -12.667 -66.333 -38 -91s-55.333 -37 -90 -37h-256z" />
    <glyph glyph-name="nine" unicode="9" 
d="M384 384v128h-256v-128h256zM0 0l0.000976562 128.001h384v128h-256c-36 0 -66.333 12.333 -91 37c-24.667 25.333 -37 55.666 -37 90.999v128c0 35.333 12.333 65.333 37 90c25.333 25.333 55.666 38 90.999 38h256c35.333 0 65.333 -12.667 90 -38
c25.333 -25.333 38 -55.333 38 -90v-384c0 -36 -12.667 -66.333 -38 -91s-55.333 -37 -90 -37h-384z" />
    <glyph glyph-name="colon" unicode=":" horiz-adv-x="340" 
d="M0 0v128h128v-128h-128zM0 512v128h128v-128h-128z" />
    <glyph glyph-name="semicolon" unicode=";" horiz-adv-x="340" 
d="M0 -128v256h128v-128c0 -35.333 -12.667 -65.333 -38 -90c-25.333 -25.333 -55.333 -38 -90 -38v0zM0 512v128h128v-128h-128z" />
    <glyph glyph-name="less" unicode="&#x3c;" horiz-adv-x="596" 
d="M128 128c-36 0 -66.332 12.334 -90.999 37.001c-24.667 25.333 -37 55.666 -37 90.999v128c0 35.333 12.333 65.333 37 90c25.333 25.333 55.666 38 90.999 38h256v-128h-256v-128h256v-128h-256z" />
    <glyph glyph-name="equal" unicode="=" 
d="M0 128v128h512v-128h-512zM0 384v128h512v-128h-512z" />
    <glyph glyph-name="greater" unicode="&#x3e;" horiz-adv-x="596" 
d="M0 128v128h256v128h-256v128h256c35.333 0 65.333 -12.667 90 -38c25.333 -25.333 38 -55.333 38 -90v-128c0 -36 -12.667 -66.333 -38 -91s-55.333 -37 -90 -37h-256z" />
    <glyph glyph-name="question" unicode="?" 
d="M128 0v128h128v-128h-128zM128 256c0 35.333 12.335 65.333 37.002 90c25.333 25.333 55.666 38 90.999 38h128v128h-256v-128h-128v128c0 35.333 12.333 65.333 37 90c25.333 25.333 55.666 38 90.999 38h256c35.333 0 65.333 -12.667 90 -38
c25.333 -25.333 38 -55.333 38 -90v-128c0 -36 -12.667 -66.333 -38 -91s-55.333 -37 -90 -37h-256z" />
    <glyph glyph-name="at" unicode="@" horiz-adv-x="852" 
d="M0 0l0.000976562 512.001c0 35.333 12.333 65.333 37 90c25.333 25.333 55.666 38 90.999 38h384c35.333 0 65.333 -12.667 90 -38c25.333 -25.333 38 -55.333 38 -90v-384c0 -36 -12.667 -66.333 -38 -91s-55.333 -37 -90 -37h-128c-36 0 -66.333 12.333 -91 37
c-24.667 25.333 -37 55.666 -37 90.999v256h128v-256h128v384h-384v-512h-128z" />
    <glyph glyph-name="A" unicode="A" 
d="M384 384v128h-256v-128h256zM0 0l0.000976562 512c0 35.333 12.333 65.333 37 90c25.333 25.333 55.666 38 90.999 38h256c35.333 0 65.333 -12.667 90 -38c25.333 -25.333 38 -55.333 38 -90v-512h-128v256h-256v-256h-128z" />
    <glyph glyph-name="B" unicode="B" 
d="M384 128v128h-256v-128h256zM384 384v128h-256v-128h256zM0 0v640h384c35.333 0 65.333 -12.667 90 -38c25.333 -25.333 38 -55.333 38 -90v-128c0 -18 -6.33301 -33.333 -19 -46c-12.667 -12 -27.667 -18 -45 -18c17.333 0 32.333 -6.33301 45 -19s19 -27.667 19 -45
v-128c0 -36 -12.667 -66.333 -38 -91s-55.333 -37 -90 -37h-384z" />
    <glyph glyph-name="C" unicode="C" 
d="M128 0c-36 0 -66.332 12.334 -90.999 37.001c-24.667 25.333 -37 55.666 -37 90.999v384c0 35.333 12.333 65.333 37 90c25.333 25.333 55.666 38 90.999 38h256c35.333 0 65.333 -12.667 90 -38c25.333 -25.333 38 -55.333 38 -90v-128h-128v128h-256v-384h256v128h128
v-128c0 -36 -12.667 -66.333 -38 -91s-55.333 -37 -90 -37h-256z" />
    <glyph glyph-name="D" unicode="D" 
d="M384 128v384h-256v-384h256zM0 0v640h384c35.333 0 65.333 -12.667 90 -38c25.333 -25.333 38 -55.333 38 -90v-384c0 -36 -12.667 -66.333 -38 -91s-55.333 -37 -90 -37h-384z" />
    <glyph glyph-name="E" unicode="E" 
d="M128 0c-36 0 -66.332 12.334 -90.999 37.001c-24.667 25.333 -37 55.666 -37 90.999v384c0 35.333 12.333 65.333 37 90c25.333 25.333 55.666 38 90.999 38h384v-128h-384v-128h384v-128h-384v-128h384v-128h-384z" />
    <glyph glyph-name="F" unicode="F" 
d="M0 0l0.000976562 512c0 35.333 12.333 65.333 37 90c25.333 25.333 55.666 38 90.999 38h384v-128h-384v-128h384v-128h-384v-256h-128z" />
    <glyph glyph-name="G" unicode="G" 
d="M128 0c-36 0 -66.332 12.334 -90.999 37.001c-24.667 25.333 -37 55.666 -37 90.999v384c0 35.333 12.333 65.333 37 90c25.333 25.333 55.666 38 90.999 38h384v-128h-384v-384h256v128h-128v128h128c35.333 0 65.333 -12.667 90 -38c25.333 -25.333 38 -55.333 38 -90
v-128c0 -36 -12.667 -66.333 -38 -91s-55.333 -37 -90 -37h-256z" />
    <glyph glyph-name="H" unicode="H" 
d="M0 0v640h128v-256h256v256h128v-640h-128v256h-256v-256h-128z" />
    <glyph glyph-name="I" unicode="I" horiz-adv-x="340" 
d="M0 0v640h128v-640h-128z" />
    <glyph glyph-name="J" unicode="J" horiz-adv-x="596" 
d="M0 0v128h256v512h128v-512c0 -36 -12.667 -66.333 -38 -91s-55.333 -37 -90 -37h-256z" />
    <glyph glyph-name="K" unicode="K" 
d="M0 0v640h128v-256h256v256h128v-256c0 -18 -6.33301 -33.333 -19 -46c-12.667 -12 -27.667 -18 -45 -18c17.333 0 32.333 -6.33301 45 -19s19 -27.667 19 -45v-256h-128v256h-256v-256h-128z" />
    <glyph glyph-name="L" unicode="L" 
d="M128 0c-36 0 -66.333 12.334 -91 37.001c-24.667 25.333 -37 55.666 -37 90.999v512h128v-512h384v-128h-384z" />
    <glyph glyph-name="M" unicode="M" horiz-adv-x="852" 
d="M0 0v640h512c35.333 0 65.333 -12.667 90 -38c25.333 -25.333 38 -55.333 38 -90v-512h-128v512h-128v-512h-128v512h-128v-512h-128z" />
    <glyph glyph-name="N" unicode="N" 
d="M0 0v640h384c35.333 0 65.333 -12.667 90 -38c25.333 -25.333 38 -55.333 38 -90v-512h-128v512h-256v-512h-128z" />
    <glyph glyph-name="O" unicode="O" 
d="M384 128v384h-256v-384h256zM128 0c-36 0 -66.332 12.334 -90.999 37.001c-24.667 25.333 -37 55.666 -37 90.999v384c0 35.333 12.333 65.333 37 90c25.333 25.333 55.666 38 90.999 38h256c35.333 0 65.333 -12.667 90 -38c25.333 -25.333 38 -55.333 38 -90v-384
c0 -36 -12.667 -66.333 -38 -91s-55.333 -37 -90 -37h-256z" />
    <glyph glyph-name="P" unicode="P" 
d="M384 384v128h-256v-128h256zM0 0v640h384c35.333 0 65.333 -12.667 90 -38c25.333 -25.333 38 -55.333 38 -90v-128c0 -36 -12.667 -66.333 -38 -91s-55.333 -37 -90 -37h-256v-256h-128z" />
    <glyph glyph-name="Q" unicode="Q" 
d="M256 128c0 35.333 12.334 65.333 37.001 90c25.333 25.333 55.666 38 90.999 38v256h-256v-384h128zM128.001 0c-36 0 -66.333 12.334 -91 37.001c-24.667 25.333 -37 55.666 -37 90.999v384c0 35.333 12.333 65.333 37 90c25.333 25.333 55.666 38 90.999 38h256
c35.333 0 65.333 -12.667 90 -38c25.333 -25.333 38 -55.333 38 -90v-384c-35.333 0 -65.666 -12.667 -90.999 -38c-24.667 -25.333 -37 -55.333 -37 -90h-256z" />
    <glyph glyph-name="R" unicode="R" 
d="M384 384v128h-256v-128h256zM0 0v640h384c35.333 0 65.333 -12.667 90 -38c25.333 -25.333 38 -55.333 38 -90v-128c0 -18 -6.33301 -33.333 -19 -46c-12.667 -12 -27.667 -18 -45 -18c17.333 0 32.333 -6.33301 45 -19s19 -27.667 19 -45v-256h-128v256h-256v-256h-128z
" />
    <glyph glyph-name="S" unicode="S" 
d="M0 0l0.000976562 128.001h384v128h-256c-36 0 -66.333 12.333 -91 37c-24.667 25.333 -37 55.666 -37 90.999v128c0 35.333 12.333 65.333 37 90c25.333 25.333 55.666 38 90.999 38h384v-128h-384v-128h256c35.333 0 65.333 -12.667 90 -38
c25.333 -25.333 38 -55.333 38 -90v-128c0 -36 -12.667 -66.333 -38 -91s-55.333 -37 -90 -37h-384z" />
    <glyph glyph-name="T" unicode="T" horiz-adv-x="596" 
d="M128 0v512h-128v128h384v-128h-128v-512h-128z" />
    <glyph glyph-name="U" unicode="U" 
d="M128 0c-36 0 -66.333 12.334 -91 37.001c-24.667 25.333 -37 55.666 -37 90.999v512h128v-512h256v512h128v-640h-384z" />
    <glyph glyph-name="V" unicode="V" 
d="M128 0c-36 0 -66.333 12.334 -91 37.001c-24.667 25.333 -37 55.666 -37 90.999v512h128v-512h256v512h128v-512c0 -36 -12.667 -66.333 -38 -91s-55.333 -37 -90 -37h-256z" />
    <glyph glyph-name="W" unicode="W" horiz-adv-x="852" 
d="M128 0c-36 0 -66.333 12.334 -91 37.001c-24.667 25.333 -37 55.666 -37 90.999v512h128v-512h128v512h128v-512h128v512h128v-512c0 -36 -12.667 -66.333 -38 -91s-55.333 -37 -90 -37h-384z" />
    <glyph glyph-name="X" unicode="X" 
d="M0 0v256c0 17.333 6 32.333 18 45c12.667 12.667 28 19 46 19c-18 0 -33.333 6 -46 18c-12 12.667 -18 28 -18 46v256h128v-256h256v256h128v-256c0 -18 -6.33301 -33.333 -19 -46c-12.667 -12 -27.667 -18 -45 -18c17.333 0 32.333 -6.33301 45 -19s19 -27.667 19 -45
v-256h-128v256h-256v-256h-128z" />
    <glyph glyph-name="Y" unicode="Y" 
d="M0 0v128.001h384v128h-256c-36 0 -66.333 12.333 -91 37c-24.667 25.333 -37 55.666 -37 90.999v256h128v-256h256v256h128v-512c0 -36 -12.667 -66.333 -38 -91s-55.333 -37 -90 -37h-384z" />
    <glyph glyph-name="Z" unicode="Z" 
d="M0 0l0.000976562 256c0 35.333 12.333 65.333 37 90c25.333 25.333 55.666 38 90.999 38h256v128h-384v128h512v-256c0 -36 -12.667 -66.333 -38 -91s-55.333 -37 -90 -37h-256v-128h384v-128h-512z" />
    <glyph glyph-name="bracketleft" unicode="[" horiz-adv-x="468" 
d="M0 0v640h256v-128h-128v-384h128v-128h-256z" />
    <glyph glyph-name="backslash" unicode="\" horiz-adv-x="468" 
d="M128 0v256.001c-36 0 -66.333 12.333 -91 37c-24.667 25.333 -37 55.666 -37 90.999v256h128v-256c35.333 0 65.333 -12.667 90 -38c25.333 -25.333 38 -55.333 38 -90v-256h-128z" />
    <glyph glyph-name="bracketright" unicode="]" horiz-adv-x="468" 
d="M0 0v128h128v384h-128v128h256v-640h-256z" />
    <glyph glyph-name="asciicircum" unicode="^" horiz-adv-x="596" 
d="M0 384l0.000976562 128c0 35.333 12.333 65.333 37 90c25.333 25.333 55.666 38 90.999 38h128c35.333 0 65.333 -12.667 90 -38c25.333 -25.333 38 -55.333 38 -90v-128h-128v128h-128v-128h-128z" />
    <glyph glyph-name="underscore" unicode="_" horiz-adv-x="852" 
d="M0 0v128h640v-128h-640z" />
    <glyph glyph-name="grave" unicode="`" horiz-adv-x="340" 
d="M0 384v256h128v-256h-128z" />
    <glyph glyph-name="a" unicode="a" 
d="M384 384v128h-256v-128h256zM0 0l0.000976562 512c0 35.333 12.333 65.333 37 90c25.333 25.333 55.666 38 90.999 38h256c35.333 0 65.333 -12.667 90 -38c25.333 -25.333 38 -55.333 38 -90v-512h-128v256h-256v-256h-128z" />
    <glyph glyph-name="b" unicode="b" 
d="M384 128v128h-256v-128h256zM384 384v128h-256v-128h256zM0 0v640h384c35.333 0 65.333 -12.667 90 -38c25.333 -25.333 38 -55.333 38 -90v-128c0 -18 -6.33301 -33.333 -19 -46c-12.667 -12 -27.667 -18 -45 -18c17.333 0 32.333 -6.33301 45 -19s19 -27.667 19 -45
v-128c0 -36 -12.667 -66.333 -38 -91s-55.333 -37 -90 -37h-384z" />
    <glyph glyph-name="c" unicode="c" 
d="M128 0c-36 0 -66.332 12.334 -90.999 37.001c-24.667 25.333 -37 55.666 -37 90.999v384c0 35.333 12.333 65.333 37 90c25.333 25.333 55.666 38 90.999 38h256c35.333 0 65.333 -12.667 90 -38c25.333 -25.333 38 -55.333 38 -90v-128h-128v128h-256v-384h256v128h128
v-128c0 -36 -12.667 -66.333 -38 -91s-55.333 -37 -90 -37h-256z" />
    <glyph glyph-name="d" unicode="d" 
d="M384 128v384h-256v-384h256zM0 0v640h384c35.333 0 65.333 -12.667 90 -38c25.333 -25.333 38 -55.333 38 -90v-384c0 -36 -12.667 -66.333 -38 -91s-55.333 -37 -90 -37h-384z" />
    <glyph glyph-name="e" unicode="e" 
d="M128 0c-36 0 -66.332 12.334 -90.999 37.001c-24.667 25.333 -37 55.666 -37 90.999v384c0 35.333 12.333 65.333 37 90c25.333 25.333 55.666 38 90.999 38h384v-128h-384v-128h384v-128h-384v-128h384v-128h-384z" />
    <glyph glyph-name="f" unicode="f" 
d="M0 0l0.000976562 512c0 35.333 12.333 65.333 37 90c25.333 25.333 55.666 38 90.999 38h384v-128h-384v-128h384v-128h-384v-256h-128z" />
    <glyph glyph-name="g" unicode="g" 
d="M128 0c-36 0 -66.332 12.334 -90.999 37.001c-24.667 25.333 -37 55.666 -37 90.999v384c0 35.333 12.333 65.333 37 90c25.333 25.333 55.666 38 90.999 38h384v-128h-384v-384h256v128h-128v128h128c35.333 0 65.333 -12.667 90 -38c25.333 -25.333 38 -55.333 38 -90
v-128c0 -36 -12.667 -66.333 -38 -91s-55.333 -37 -90 -37h-256z" />
    <glyph glyph-name="h" unicode="h" 
d="M0 0v640h128v-256h256v256h128v-640h-128v256h-256v-256h-128z" />
    <glyph glyph-name="i" unicode="i" horiz-adv-x="340" 
d="M0 0v640h128v-640h-128z" />
    <glyph glyph-name="j" unicode="j" horiz-adv-x="596" 
d="M0 0v128h256v512h128v-512c0 -36 -12.667 -66.333 -38 -91s-55.333 -37 -90 -37h-256z" />
    <glyph glyph-name="k" unicode="k" 
d="M0 0v640h128v-256h256v256h128v-256c0 -18 -6.33301 -33.333 -19 -46c-12.667 -12 -27.667 -18 -45 -18c17.333 0 32.333 -6.33301 45 -19s19 -27.667 19 -45v-256h-128v256h-256v-256h-128z" />
    <glyph glyph-name="l" unicode="l" 
d="M128 0c-36 0 -66.333 12.334 -91 37.001c-24.667 25.333 -37 55.666 -37 90.999v512h128v-512h384v-128h-384z" />
    <glyph glyph-name="m" unicode="m" horiz-adv-x="852" 
d="M0 0v640h512c35.333 0 65.333 -12.667 90 -38c25.333 -25.333 38 -55.333 38 -90v-512h-128v512h-128v-512h-128v512h-128v-512h-128z" />
    <glyph glyph-name="n" unicode="n" 
d="M0 0v640h384c35.333 0 65.333 -12.667 90 -38c25.333 -25.333 38 -55.333 38 -90v-512h-128v512h-256v-512h-128z" />
    <glyph glyph-name="o" unicode="o" 
d="M384 128v384h-256v-384h256zM128 0c-36 0 -66.332 12.334 -90.999 37.001c-24.667 25.333 -37 55.666 -37 90.999v384c0 35.333 12.333 65.333 37 90c25.333 25.333 55.666 38 90.999 38h256c35.333 0 65.333 -12.667 90 -38c25.333 -25.333 38 -55.333 38 -90v-384
c0 -36 -12.667 -66.333 -38 -91s-55.333 -37 -90 -37h-256z" />
    <glyph glyph-name="p" unicode="p" 
d="M384 384v128h-256v-128h256zM0 0l0.000976562 512c0 35.333 12.333 65.333 37 90c25.333 25.333 55.666 38 90.999 38h256c35.333 0 65.333 -12.667 90 -38c25.333 -25.333 38 -55.333 38 -90v-128c0 -36 -12.667 -66.333 -38 -91s-55.333 -37 -90 -37h-256v-256h-128z
" />
    <glyph glyph-name="q" unicode="q" 
d="M384 128v384h-256v-384h256zM384 -128l0.000976562 128.001h-256c-36 0 -66.333 12.333 -91 37c-24.667 25.333 -37 55.666 -37 90.999v384c0 35.333 12.333 65.333 37 90c25.333 25.333 55.666 38 90.999 38h256c35.333 0 65.333 -12.667 90 -38
c25.333 -25.333 38 -55.333 38 -90v-640h-128z" />
    <glyph glyph-name="r" unicode="r" 
d="M384 384v128h-256v-128h256zM0 0v640h384c35.333 0 65.333 -12.667 90 -38c25.333 -25.333 38 -55.333 38 -90v-128c0 -18 -6.33301 -33.333 -19 -46c-12.667 -12 -27.667 -18 -45 -18c17.333 0 32.333 -6.33301 45 -19s19 -27.667 19 -45v-256h-128v256h-256v-256h-128z
" />
    <glyph glyph-name="s" unicode="s" 
d="M0 0l0.000976562 128.001h384v128h-256c-36 0 -66.333 12.333 -91 37c-24.667 25.333 -37 55.666 -37 90.999v128c0 35.333 12.333 65.333 37 90c25.333 25.333 55.666 38 90.999 38h384v-128h-384v-128h256c35.333 0 65.333 -12.667 90 -38
c25.333 -25.333 38 -55.333 38 -90v-128c0 -36 -12.667 -66.333 -38 -91s-55.333 -37 -90 -37h-384z" />
    <glyph glyph-name="t" unicode="t" horiz-adv-x="596" 
d="M128 0v512h-128v128h384v-128h-128v-512h-128z" />
    <glyph glyph-name="u" unicode="u" 
d="M128 0c-36 0 -66.333 12.334 -91 37.001c-24.667 25.333 -37 55.666 -37 90.999v512h128v-512h256v512h128v-640h-384z" />
    <glyph glyph-name="v" unicode="v" 
d="M128 0c-36 0 -66.333 12.334 -91 37.001c-24.667 25.333 -37 55.666 -37 90.999v512h128v-512h256v512h128v-512c0 -36 -12.667 -66.333 -38 -91s-55.333 -37 -90 -37h-256z" />
    <glyph glyph-name="w" unicode="w" horiz-adv-x="852" 
d="M128 0c-36 0 -66.333 12.334 -91 37.001c-24.667 25.333 -37 55.666 -37 90.999v512h128v-512h128v512h128v-512h128v512h128v-512c0 -36 -12.667 -66.333 -38 -91s-55.333 -37 -90 -37h-384z" />
    <glyph glyph-name="x" unicode="x" 
d="M0 0v256c0 17.333 6 32.333 18 45c12.667 12.667 28 19 46 19c-18 0 -33.333 6 -46 18c-12 12.667 -18 28 -18 46v256h128v-256h256v256h128v-256c0 -18 -6.33301 -33.333 -19 -46c-12.667 -12 -27.667 -18 -45 -18c17.333 0 32.333 -6.33301 45 -19s19 -27.667 19 -45
v-256h-128v256h-256v-256h-128z" />
    <glyph glyph-name="y" unicode="y" 
d="M0 0v128.001h384v128h-256c-36 0 -66.333 12.333 -91 37c-24.667 25.333 -37 55.666 -37 90.999v256h128v-256h256v256h128v-512c0 -36 -12.667 -66.333 -38 -91s-55.333 -37 -90 -37h-384z" />
    <glyph glyph-name="z" unicode="z" 
d="M0 0l0.000976562 256c0 35.333 12.333 65.333 37 90c25.333 25.333 55.666 38 90.999 38h256v128h-384v128h512v-256c0 -36 -12.667 -66.333 -38 -91s-55.333 -37 -90 -37h-256v-128h384v-128h-512z" />
    <glyph glyph-name="braceleft" unicode="{" horiz-adv-x="596" 
d="M256 0c-36 0 -66.332 12.334 -90.999 37.001c-24.667 25.333 -37 55.666 -37 90.999v128c-18 0 -33.333 6 -46 18c-12 12.667 -18 28 -18 46c0 17.333 6 32.333 18 45c12.667 12.667 28 19 46 19v128c0 35.333 12.333 65.333 37 90c25.333 25.333 55.666 38 90.999 38
h128v-128h-128v-384h128v-128h-128z" />
    <glyph glyph-name="bar" unicode="|" horiz-adv-x="340" 
d="M0 0v640h128v-640h-128z" />
    <glyph glyph-name="braceright" unicode="}" horiz-adv-x="596" 
d="M0 0v128h128v384h-128v128h128c35.333 0 65.333 -12.667 90 -38c25.333 -25.333 38 -55.333 38 -90v-128c17.333 0 32.333 -6.33301 45 -19s19 -27.667 19 -45c0 -18 -6.33301 -33.333 -19 -46c-12.667 -12 -27.667 -18 -45 -18v-128c0 -36 -12.667 -66.333 -38 -91
s-55.333 -37 -90 -37h-128z" />
    <glyph glyph-name="asciitilde" unicode="~" horiz-adv-x="852" 
d="M0 256l0.000976562 128.001c0 35.333 12.333 65.333 37 90c25.333 25.333 55.666 38 90.999 38h128c35.333 0 65.333 -12.667 90 -38c25.333 -25.333 38 -55.333 38 -90h128v128h128v-128c0 -36 -12.667 -66.333 -38 -91s-55.333 -37 -90 -37h-128
c-36 0 -66.333 12.333 -91 37c-24.667 25.333 -37 55.666 -37 90.999h-128v-128h-128z" />
    <glyph glyph-name="exclamdown" unicode="&#xa1;" horiz-adv-x="340" 
d="M0 0v384h128v-384h-128zM0 512v128h128v-128h-128z" />
    <glyph glyph-name="cent" unicode="&#xa2;" horiz-adv-x="596" 
d="M128 0l0.000976562 128.001c-36 0 -66.333 12.333 -91 37c-24.667 25.333 -37 55.666 -37 90.999v128c0 35.333 12.333 65.333 37 90c25.333 25.333 55.666 38 90.999 38v128h128v-128c35.333 0 65.333 -12.667 90 -38c25.333 -25.333 38 -55.333 38 -90h-256v-128h256
c0 -36 -12.667 -66.333 -38 -91s-55.333 -37 -90 -37v-128h-128z" />
    <glyph glyph-name="sterling" unicode="&#xa3;" 
d="M0 0l0.000976562 256h-128v128h128v128c0 35.333 12.333 65.333 37 90c25.333 25.333 55.666 38 90.999 38h128c35.333 0 65.333 -12.667 90 -38c25.333 -25.333 38 -55.333 38 -90h-256v-128h128v-128h-128v-128h384v-128h-512z" />
    <glyph glyph-name="currency" unicode="&#xa4;" horiz-adv-x="852" 
d="M0 0v128h128v-128h-128zM512 0v128h128v-128h-128zM384 256v128h-128v-128h128zM256 128c-36 0 -66.332 12.334 -90.999 37.001c-24.667 25.333 -37 55.666 -37 90.999v128c0 35.333 12.333 65.333 37 90c25.333 25.333 55.666 38 90.999 38h128
c35.333 0 65.333 -12.667 90 -38c25.333 -25.333 38 -55.333 38 -90v-128c0 -36 -12.667 -66.333 -38 -91s-55.333 -37 -90 -37h-128zM0.000976562 512.001v128h128v-128h-128zM512.001 512.001v128h128v-128h-128z" />
    <glyph glyph-name="yen" unicode="&#xa5;" horiz-adv-x="596" 
d="M128 0l0.000976562 128.001h-128c0 35.333 12.333 65.333 37 90c25.333 25.333 55.666 38 90.999 38c-36 0 -66.333 12.333 -91 37c-24.667 25.333 -37 55.666 -37 90.999v256h128v-256h128v256h128v-256c0 -36 -12.667 -66.333 -38 -91s-55.333 -37 -90 -37
c35.333 0 65.333 -12.667 90 -38c25.333 -25.333 38 -55.333 38 -90h-128v-128h-128z" />
    <glyph glyph-name="brokenbar" unicode="&#xa6;" horiz-adv-x="340" 
d="M0 0v256h128v-256h-128zM0 384v256h128v-256h-128z" />
    <glyph glyph-name="section" unicode="&#xa7;" 
d="M0 0v128h384v128h-128v128h128c35.333 0 65.333 -12.667 90 -38c25.333 -25.333 38 -55.333 38 -90v-128c0 -36 -12.667 -66.333 -38 -91s-55.333 -37 -90 -37h-384zM128 256c-36 0 -66.332 12.334 -90.999 37.001c-24.667 25.333 -37 55.666 -37 90.999v128
c0 35.333 12.333 65.333 37 90c25.333 25.333 55.666 38 90.999 38h384v-128h-384v-256v0z" />
    <glyph glyph-name="dieresis" unicode="&#xa8;" 
d="M64 512c-18 0 -33.333 6 -46 18c-12 12.667 -18 28 -18 46c0 17.333 6 32.333 18 45c12.667 12.667 28 19 46 19c17.333 0 32.333 -6.33301 45 -19s19 -27.667 19 -45c0 -18 -6.33301 -33.333 -19 -46c-12.667 -12 -27.667 -18 -45 -18v0zM448 512
c-18 0 -33.333 6 -46 18c-12 12.667 -18 28 -18 46c0 17.333 6 32.333 18 45c12.667 12.667 28 19 46 19c17.333 0 32.333 -6.33301 45 -19s19 -27.667 19 -45c0 -18 -6.33301 -33.333 -19 -46c-12.667 -12 -27.667 -18 -45 -18v0z" />
    <glyph glyph-name="copyright" unicode="&#xa9;" horiz-adv-x="852" 
d="M320 256c-18 0 -33.333 6 -46 18c-12 12.667 -18 28 -18 46c0 17.333 6 32.333 18 45c12.667 12.667 28 19 46 19h64v-128h-64zM512 128v384h-384v-384h384zM128 0c-36 0 -66.332 12.334 -90.999 37.001c-24.667 25.333 -37 55.666 -37 90.999v384
c0 35.333 12.333 65.333 37 90c25.333 25.333 55.666 38 90.999 38h384c35.333 0 65.333 -12.667 90 -38c25.333 -25.333 38 -55.333 38 -90v-384c0 -36 -12.667 -66.333 -38 -91s-55.333 -37 -90 -37h-384z" />
    <glyph glyph-name="ordfeminine" unicode="&#xaa;" horiz-adv-x="596" 
d="M256 384v128h-128v-128h128zM128 256c-36 0 -66.332 12.334 -90.999 37.001c-24.667 25.333 -37 55.666 -37 90.999v128c0 35.333 12.333 65.333 37 90c25.333 25.333 55.666 38 90.999 38h256v-384h-256z" />
    <glyph glyph-name="guillemotleft" unicode="&#xab;" horiz-adv-x="852" 
d="M128 128c-36 0 -66.332 12.334 -90.999 37.001c-24.667 25.333 -37 55.666 -37 90.999v128c0 35.333 12.333 65.333 37 90c25.333 25.333 55.666 38 90.999 38h128v-128h-128v-128h128v-128h-128zM512.001 128.001c-36 0 -66.332 12.334 -90.999 37.001
c-24.667 25.333 -37 55.666 -37 90.999v128c0 35.333 12.333 65.333 37 90c25.333 25.333 55.666 38 90.999 38h128v-128h-128v-128h128v-128h-128z" />
    <glyph glyph-name="logicalnot" unicode="&#xac;" 
d="M384 128v128h-384v128h512v-256h-128z" />
    <glyph glyph-name="registered" unicode="&#xae;" horiz-adv-x="852" 
d="M256 256v128h64c17.333 0 32.333 -6.33301 45 -19s19 -27.667 19 -45v-64h-128zM512 128v384h-384v-384h384zM128 0c-36 0 -66.332 12.334 -90.999 37.001c-24.667 25.333 -37 55.666 -37 90.999v384c0 35.333 12.333 65.333 37 90c25.333 25.333 55.666 38 90.999 38
h384c35.333 0 65.333 -12.667 90 -38c25.333 -25.333 38 -55.333 38 -90v-384c0 -36 -12.667 -66.333 -38 -91s-55.333 -37 -90 -37h-384z" />
    <glyph glyph-name="macron" unicode="&#xaf;" 
d="M0 512v128h512v-128h-512z" />
    <glyph glyph-name="degree" unicode="&#xb0;" horiz-adv-x="596" 
d="M256 384v128h-128v-128h128zM128 256c-36 0 -66.332 12.334 -90.999 37.001c-24.667 25.333 -37 55.666 -37 90.999v128c0 35.333 12.333 65.333 37 90c25.333 25.333 55.666 38 90.999 38h128c35.333 0 65.333 -12.667 90 -38c25.333 -25.333 38 -55.333 38 -90v-128
c0 -36 -12.667 -66.333 -38 -91s-55.333 -37 -90 -37h-128z" />
    <glyph glyph-name="plusminus" unicode="&#xb1;" horiz-adv-x="596" 
d="M0 0v128h384v-128h-384zM128 256v128h-128v128h128v128h128v-128h128v-128h-128v-128h-128z" />
    <glyph glyph-name="uni00B2" unicode="&#xb2;" horiz-adv-x="468" 
d="M0 256l0.000976562 128c0 35.333 12.333 65.333 37 90c25.333 25.333 55.666 38 90.999 38h-128v128h128c35.333 0 65.333 -12.667 90 -38c25.333 -25.333 38 -55.333 38 -90c0 -36 -12.667 -66.333 -38 -91s-55.333 -37 -90 -37h128v-128h-256z" />
    <glyph glyph-name="uni00B3" unicode="&#xb3;" horiz-adv-x="468" 
d="M0 256v128c0 17.333 6 32.333 18 45c12.667 12.667 28 19 46 19c-18 0 -33.333 6 -46 18c-12 12.667 -18 28 -18 46v128h128c35.333 0 65.333 -12.667 90 -38c25.333 -25.333 38 -55.333 38 -90v-128c0 -36 -12.667 -66.333 -38 -91s-55.333 -37 -90 -37h-128z" />
    <glyph glyph-name="acute" unicode="&#xb4;" horiz-adv-x="468" 
d="M0 512c0 35.333 12.334 65.333 37.001 90c25.333 25.333 55.666 38 90.999 38h128v-128h-256z" />
    <glyph glyph-name="uni00B5" unicode="&#xb5;" 
d="M0 0v640h128v-256h256v256h128v-256c0 -36 -12.667 -66.333 -38 -91s-55.333 -37 -90 -37h-256v-256h-128z" />
    <glyph glyph-name="paragraph" unicode="&#xb6;" 
d="M128 0l0.000976562 256.001c-36 0 -66.333 12.333 -91 37c-24.667 25.333 -37 55.666 -37 90.999v128c0 35.333 12.333 65.333 37 90c25.333 25.333 55.666 38 90.999 38h384v-640h-128v512h-128v-512h-128z" />
    <glyph glyph-name="periodcentered" unicode="&#xb7;" horiz-adv-x="340" 
d="M0 256v128h128v-128h-128z" />
    <glyph glyph-name="cedilla" unicode="&#xb8;" horiz-adv-x="468" 
d="M128 -256v127.999h-128v256h128v-128c35.333 0 65.333 -12.333 90 -37c25.333 -25.333 38 -55.666 38 -90.999s-12.667 -65.333 -38 -90c-25.333 -25.333 -55.333 -38 -90 -38v0z" />
    <glyph glyph-name="uni00B9" unicode="&#xb9;" horiz-adv-x="340" 
d="M0 384v256h128v-256h-128z" />
    <glyph glyph-name="ordmasculine" unicode="&#xba;" horiz-adv-x="340" 
d="M64 512c-18 0 -33.333 6 -46 18c-12 12.667 -18 28 -18 46c0 17.333 6 32.333 18 45c12.667 12.667 28 19 46 19c17.333 0 32.333 -6.33301 45 -19s19 -27.667 19 -45c0 -18 -6.33301 -33.333 -19 -46c-12.667 -12 -27.667 -18 -45 -18v0z" />
    <glyph glyph-name="guillemotright" unicode="&#xbb;" horiz-adv-x="852" 
d="M0 128v128h128v128h-128v128h128c35.333 0 65.333 -12.667 90 -38c25.333 -25.333 38 -55.333 38 -90v-128c0 -36 -12.667 -66.333 -38 -91s-55.333 -37 -90 -37h-128zM384 128v128h128v128h-128v128h128c35.333 0 65.333 -12.667 90 -38
c25.333 -25.333 38 -55.333 38 -90v-128c0 -36 -12.667 -66.333 -38 -91s-55.333 -37 -90 -37h-128z" />
    <glyph glyph-name="onequarter" unicode="&#xbc;" 
d="M64 0c-18 0 -33.333 6 -46 18c-12 12.667 -18 28 -18 46c0 17.333 6 32.333 18 45c12.667 12.667 28 19 46 19c17.333 0 32.333 -6.33301 45 -19s19 -27.667 19 -45c0 -18 -6.33301 -33.333 -19 -46c-12.667 -12 -27.667 -18 -45 -18v0zM192 0c-18 0 -33.333 6 -46 18
c-12 12.667 -18 28 -18 46c0 17.333 6 32.333 18 45c12.667 12.667 28 19 46 19c17.333 0 32.333 -6.33301 45 -19s19 -27.667 19 -45c0 -18 -6.33301 -33.333 -19 -46c-12.667 -12 -27.667 -18 -45 -18v0zM320 0c-18 0 -33.333 6 -46 18c-12 12.667 -18 28 -18 46
c0 17.333 6 32.333 18 45c12.667 12.667 28 19 46 19c17.333 0 32.333 -6.33301 45 -19s19 -27.667 19 -45c0 -18 -6.33301 -33.333 -19 -46c-12.667 -12 -27.667 -18 -45 -18v0zM448 0c-18 0 -33.333 6 -46 18c-12 12.667 -18 28 -18 46c0 17.333 6 32.333 18 45
c12.667 12.667 28 19 46 19c17.333 0 32.333 -6.33301 45 -19s19 -27.667 19 -45c0 -18 -6.33301 -33.333 -19 -46c-12.667 -12 -27.667 -18 -45 -18v0zM0 256v128h512v-128h-512zM64 512c-18 0 -33.333 6 -46 18c-12 12.667 -18 28 -18 46c0 17.333 6 32.333 18 45
c12.667 12.667 28 19 46 19c17.333 0 32.333 -6.33301 45 -19s19 -27.667 19 -45c0 -18 -6.33301 -33.333 -19 -46c-12.667 -12 -27.667 -18 -45 -18v0z" />
    <glyph glyph-name="onehalf" unicode="&#xbd;" 
d="M320 0c-18 0 -33.333 6 -46 18c-12 12.667 -18 28 -18 46c0 17.333 6 32.333 18 45c12.667 12.667 28 19 46 19c17.333 0 32.333 -6.33301 45 -19s19 -27.667 19 -45c0 -18 -6.33301 -33.333 -19 -46c-12.667 -12 -27.667 -18 -45 -18v0zM448 0c-18 0 -33.333 6 -46 18
c-12 12.667 -18 28 -18 46c0 17.333 6 32.333 18 45c12.667 12.667 28 19 46 19c17.333 0 32.333 -6.33301 45 -19s19 -27.667 19 -45c0 -18 -6.33301 -33.333 -19 -46c-12.667 -12 -27.667 -18 -45 -18v0zM0 256v128h512v-128h-512zM64 512c-18 0 -33.333 6 -46 18
c-12 12.667 -18 28 -18 46c0 17.333 6 32.333 18 45c12.667 12.667 28 19 46 19c17.333 0 32.333 -6.33301 45 -19s19 -27.667 19 -45c0 -18 -6.33301 -33.333 -19 -46c-12.667 -12 -27.667 -18 -45 -18v0z" />
    <glyph glyph-name="threequarters" unicode="&#xbe;" 
d="M64 0c-18 0 -33.333 6 -46 18c-12 12.667 -18 28 -18 46c0 17.333 6 32.333 18 45c12.667 12.667 28 19 46 19c17.333 0 32.333 -6.33301 45 -19s19 -27.667 19 -45c0 -18 -6.33301 -33.333 -19 -46c-12.667 -12 -27.667 -18 -45 -18v0zM192 0c-18 0 -33.333 6 -46 18
c-12 12.667 -18 28 -18 46c0 17.333 6 32.333 18 45c12.667 12.667 28 19 46 19c17.333 0 32.333 -6.33301 45 -19s19 -27.667 19 -45c0 -18 -6.33301 -33.333 -19 -46c-12.667 -12 -27.667 -18 -45 -18v0zM320 0c-18 0 -33.333 6 -46 18c-12 12.667 -18 28 -18 46
c0 17.333 6 32.333 18 45c12.667 12.667 28 19 46 19c17.333 0 32.333 -6.33301 45 -19s19 -27.667 19 -45c0 -18 -6.33301 -33.333 -19 -46c-12.667 -12 -27.667 -18 -45 -18v0zM448 0c-18 0 -33.333 6 -46 18c-12 12.667 -18 28 -18 46c0 17.333 6 32.333 18 45
c12.667 12.667 28 19 46 19c17.333 0 32.333 -6.33301 45 -19s19 -27.667 19 -45c0 -18 -6.33301 -33.333 -19 -46c-12.667 -12 -27.667 -18 -45 -18v0zM0 256v128h512v-128h-512zM64 512c-18 0 -33.333 6 -46 18c-12 12.667 -18 28 -18 46c0 17.333 6 32.333 18 45
c12.667 12.667 28 19 46 19c17.333 0 32.333 -6.33301 45 -19s19 -27.667 19 -45c0 -18 -6.33301 -33.333 -19 -46c-12.667 -12 -27.667 -18 -45 -18v0zM192 512c-18 0 -33.333 6 -46 18c-12 12.667 -18 28 -18 46c0 17.333 6 32.333 18 45c12.667 12.667 28 19 46 19
c17.333 0 32.333 -6.33301 45 -19s19 -27.667 19 -45c0 -18 -6.33301 -33.333 -19 -46c-12.667 -12 -27.667 -18 -45 -18v0zM320 512c-18 0 -33.333 6 -46 18c-12 12.667 -18 28 -18 46c0 17.333 6 32.333 18 45c12.667 12.667 28 19 46 19c17.333 0 32.333 -6.33301 45 -19
s19 -27.667 19 -45c0 -18 -6.33301 -33.333 -19 -46c-12.667 -12 -27.667 -18 -45 -18v0z" />
    <glyph glyph-name="questiondown" unicode="&#xbf;" 
d="M128 0c-36 0 -66.332 12.334 -90.999 37.001c-24.667 25.333 -37 55.666 -37 90.999v128c0 35.333 12.333 65.333 37 90c25.333 25.333 55.666 38 90.999 38h128c0 -36 -12.667 -66.333 -38 -91s-55.333 -37 -90 -37v-128h256v128h128v-128
c0 -36 -12.667 -66.333 -38 -91s-55.333 -37 -90 -37h-256zM128.001 512.001v128h128v-128h-128z" />
    <glyph glyph-name="Agrave" unicode="&#xc0;" 
d="M384 384v128h-256v-128h256zM0 0l0.000976562 512c0 35.333 12.333 65.333 37 90c25.333 25.333 55.666 38 90.999 38h256c35.333 0 65.333 -12.667 90 -38c25.333 -25.333 38 -55.333 38 -90v-512h-128v256h-256v-256h-128zM0.000976562 768v128h128
c35.333 0 65.333 -12.667 90 -38c25.333 -25.333 38 -55.333 38 -90h-256z" />
    <glyph glyph-name="Aacute" unicode="&#xc1;" 
d="M384 384v128h-256v-128h256zM0 0l0.000976562 512c0 35.333 12.333 65.333 37 90c25.333 25.333 55.666 38 90.999 38h256c35.333 0 65.333 -12.667 90 -38c25.333 -25.333 38 -55.333 38 -90v-512h-128v256h-256v-256h-128zM256.001 768
c0 35.333 12.334 65.333 37.001 90c25.333 25.333 55.666 38 90.999 38h128v-128h-256z" />
    <glyph glyph-name="Acircumflex" unicode="&#xc2;" 
d="M384 384v128h-256v-128h256zM0 0l0.000976562 512c0 35.333 12.333 65.333 37 90c25.333 25.333 55.666 38 90.999 38h256c35.333 0 65.333 -12.667 90 -38c25.333 -25.333 38 -55.333 38 -90v-512h-128v256h-256v-256h-128zM0.000976562 768
c0 35.333 12.334 65.333 37.001 90c25.333 25.333 55.666 38 90.999 38h256c35.333 0 65.333 -12.667 90 -38c25.333 -25.333 38 -55.333 38 -90h-512z" />
    <glyph glyph-name="Atilde" unicode="&#xc3;" 
d="M384 384v128h-256v-128h256zM0 0l0.000976562 512c0 35.333 12.333 65.333 37 90c25.333 25.333 55.666 38 90.999 38h256c35.333 0 65.333 -12.667 90 -38c25.333 -25.333 38 -55.333 38 -90v-512h-128v256h-256v-256h-128zM0.000976562 768
c0 35.333 12.334 65.333 37.001 90c25.333 25.333 55.666 38 90.999 38c17.333 0 32.333 -6.33301 45 -19s19 -27.667 19 -45c0 -18 -6.33301 -33.333 -19 -46c-12.667 -12 -27.667 -18 -45 -18h-128zM256.002 768c-18 0 -33.333 6 -46 18c-12 12.667 -18 28 -18 46
c0 17.333 6 32.333 18 45c12.667 12.667 28 19 46 19h256c0 -36 -12.667 -66.333 -38 -91s-55.333 -37 -90 -37h-128z" />
    <glyph glyph-name="Adieresis" unicode="&#xc4;" 
d="M384 384v128h-256v-128h256zM0 0l0.000976562 512c0 35.333 12.333 65.333 37 90c25.333 25.333 55.666 38 90.999 38h256c35.333 0 65.333 -12.667 90 -38c25.333 -25.333 38 -55.333 38 -90v-512h-128v256h-256v-256h-128zM64.001 768c-18 0 -33.333 6 -46 18
c-12 12.667 -18 28 -18 46c0 17.333 6 32.333 18 45c12.667 12.667 28 19 46 19c17.333 0 32.333 -6.33301 45 -19s19 -27.667 19 -45c0 -18 -6.33301 -33.333 -19 -46c-12.667 -12 -27.667 -18 -45 -18v0zM448.001 768c-18 0 -33.333 6 -46 18c-12 12.667 -18 28 -18 46
c0 17.333 6 32.333 18 45c12.667 12.667 28 19 46 19c17.333 0 32.333 -6.33301 45 -19s19 -27.667 19 -45c0 -18 -6.33301 -33.333 -19 -46c-12.667 -12 -27.667 -18 -45 -18v0z" />
    <glyph glyph-name="Aring" unicode="&#xc5;" 
d="M384 384v128h-256v-128h256zM0 0l0.000976562 512c0 35.333 12.333 65.333 37 90c25.333 25.333 55.666 38 90.999 38h256c35.333 0 65.333 -12.667 90 -38c25.333 -25.333 38 -55.333 38 -90v-512h-128v256h-256v-256h-128zM192.001 768c-18 0 -33.333 6 -46 18
c-12 12.667 -18 28 -18 46c0 17.333 6 32.333 18 45c12.667 12.667 28 19 46 19c17.333 0 32.333 -6.33301 45 -19s19 -27.667 19 -45c0 -18 -6.33301 -33.333 -19 -46c-12.667 -12 -27.667 -18 -45 -18v0z" />
    <glyph glyph-name="AE" unicode="&#xc6;" horiz-adv-x="852" 
d="M256 384v128h-128v-128h128zM0 0l0.000976562 512.001c0 35.333 12.333 65.333 37 90c25.333 25.333 55.666 38 90.999 38h512v-128h-256v-128h256v-128h-256v-128h256v-128h-256c-36 0 -66.333 12.333 -91 37c-24.667 25.333 -37 55.666 -37 90.999v128h-128v-256h-128z
" />
    <glyph glyph-name="Ccedilla" unicode="&#xc7;" 
d="M128 -128l0.000976562 128.001c-36 0 -66.333 12.333 -91 37c-24.667 25.333 -37 55.666 -37 90.999v384c0 35.333 12.333 65.333 37 90c25.333 25.333 55.666 38 90.999 38h256c35.333 0 65.333 -12.667 90 -38c25.333 -25.333 38 -55.333 38 -90v-128h-128v128h-256
v-384h256v128h128v-128c0 -36 -12.667 -66.333 -38 -91s-55.333 -37 -90 -37h-128c0 -35.333 -12.667 -65.333 -38 -90c-25.333 -25.333 -55.333 -38 -90 -38v0z" />
    <glyph glyph-name="Egrave" unicode="&#xc8;" 
d="M128 0c-36 0 -66.332 12.334 -90.999 37.001c-24.667 25.333 -37 55.666 -37 90.999v384c0 35.333 12.333 65.333 37 90c25.333 25.333 55.666 38 90.999 38h384v-128h-384v-128h384v-128h-384v-128h384v-128h-384zM0.000976562 768.001v128h128
c35.333 0 65.333 -12.667 90 -38c25.333 -25.333 38 -55.333 38 -90h-256z" />
    <glyph glyph-name="Eacute" unicode="&#xc9;" 
d="M128 0c-36 0 -66.332 12.334 -90.999 37.001c-24.667 25.333 -37 55.666 -37 90.999v384c0 35.333 12.333 65.333 37 90c25.333 25.333 55.666 38 90.999 38h384v-128h-384v-128h384v-128h-384v-128h384v-128h-384zM256.001 768.001c0 35.333 12.334 65.333 37.001 90
c25.333 25.333 55.666 38 90.999 38h128v-128h-256z" />
    <glyph glyph-name="Ecircumflex" unicode="&#xca;" 
d="M128 0c-36 0 -66.332 12.334 -90.999 37.001c-24.667 25.333 -37 55.666 -37 90.999v384c0 35.333 12.333 65.333 37 90c25.333 25.333 55.666 38 90.999 38h384v-128h-384v-128h384v-128h-384v-128h384v-128h-384zM0.000976562 768.001
c0 35.333 12.334 65.333 37.001 90c25.333 25.333 55.666 38 90.999 38h256c35.333 0 65.333 -12.667 90 -38c25.333 -25.333 38 -55.333 38 -90h-512z" />
    <glyph glyph-name="Edieresis" unicode="&#xcb;" 
d="M128 0c-36 0 -66.332 12.334 -90.999 37.001c-24.667 25.333 -37 55.666 -37 90.999v384c0 35.333 12.333 65.333 37 90c25.333 25.333 55.666 38 90.999 38h384v-128h-384v-128h384v-128h-384v-128h384v-128h-384zM64.001 768.001c-18 0 -33.333 6 -46 18
c-12 12.667 -18 28 -18 46c0 17.333 6 32.333 18 45c12.667 12.667 28 19 46 19c17.333 0 32.333 -6.33301 45 -19s19 -27.667 19 -45c0 -18 -6.33301 -33.333 -19 -46c-12.667 -12 -27.667 -18 -45 -18v0zM448.001 768.001c-18 0 -33.333 6 -46 18
c-12 12.667 -18 28 -18 46c0 17.333 6 32.333 18 45c12.667 12.667 28 19 46 19c17.333 0 32.333 -6.33301 45 -19s19 -27.667 19 -45c0 -18 -6.33301 -33.333 -19 -46c-12.667 -12 -27.667 -18 -45 -18v0z" />
    <glyph glyph-name="Igrave" unicode="&#xcc;" horiz-adv-x="468" 
d="M0 0v640h128v-640h-128zM0 768v128h128c35.333 0 65.333 -12.667 90 -38c25.333 -25.333 38 -55.333 38 -90h-256z" />
    <glyph glyph-name="Iacute" unicode="&#xcd;" horiz-adv-x="468" 
d="M0 0v640h128v-640h-128zM0 768c0 35.333 12.334 65.333 37.001 90c25.333 25.333 55.666 38 90.999 38h128v-128h-256z" />
    <glyph glyph-name="Icircumflex" unicode="&#xce;" horiz-adv-x="340" 
d="M0 0v640h128v-640h-128zM0 768c0 17.333 6 32.333 18 45c12.667 12.667 28 19 46 19c17.333 0 32.333 -6.33301 45 -19s19 -27.667 19 -45h-128z" />
    <glyph glyph-name="Idieresis" unicode="&#xcf;" horiz-adv-x="468" 
d="M0 0v640h128v-640h-128zM-64 768c-17.333 0 -32.333 6 -45 18c-12.667 12.667 -19 28 -19 46c0 17.333 6.33301 32.333 19 45s27.667 19 45 19c18 0 33.333 -6.33301 46 -19c12 -12.667 18 -27.667 18 -45c0 -18 -6 -33.333 -18 -46c-12.667 -12 -28 -18 -46 -18v0z
M192 768c-18 0 -33.333 6 -46 18c-12 12.667 -18 28 -18 46c0 17.333 6 32.333 18 45c12.667 12.667 28 19 46 19c17.333 0 32.333 -6.33301 45 -19s19 -27.667 19 -45c0 -18 -6.33301 -33.333 -19 -46c-12.667 -12 -27.667 -18 -45 -18v0z" />
    <glyph glyph-name="Eth" unicode="&#xd0;" 
d="M384 128v384h-256v-128h128v-128h-128v-128h256zM0 0v256h-128v128h128v256h384c35.333 0 65.333 -12.667 90 -38c25.333 -25.333 38 -55.333 38 -90v-384c0 -36 -12.667 -66.333 -38 -91s-55.333 -37 -90 -37h-384z" />
    <glyph glyph-name="Ntilde" unicode="&#xd1;" 
d="M0 0v640h384c35.333 0 65.333 -12.667 90 -38c25.333 -25.333 38 -55.333 38 -90v-512h-128v512h-256v-512h-128zM0 768c0 35.333 12.334 65.333 37.001 90c25.333 25.333 55.666 38 90.999 38c17.333 0 32.333 -6.33301 45 -19s19 -27.667 19 -45
c0 -18 -6.33301 -33.333 -19 -46c-12.667 -12 -27.667 -18 -45 -18h-128zM256.001 768c-18 0 -33.333 6 -46 18c-12 12.667 -18 28 -18 46c0 17.333 6 32.333 18 45c12.667 12.667 28 19 46 19h256c0 -36 -12.667 -66.333 -38 -91s-55.333 -37 -90 -37h-128z" />
    <glyph glyph-name="Ograve" unicode="&#xd2;" 
d="M384 128v384h-256v-384h256zM128 0c-36 0 -66.332 12.334 -90.999 37.001c-24.667 25.333 -37 55.666 -37 90.999v384c0 35.333 12.333 65.333 37 90c25.333 25.333 55.666 38 90.999 38h256c35.333 0 65.333 -12.667 90 -38c25.333 -25.333 38 -55.333 38 -90v-384
c0 -36 -12.667 -66.333 -38 -91s-55.333 -37 -90 -37h-256zM0.000976562 768.001v128h128c35.333 0 65.333 -12.667 90 -38c25.333 -25.333 38 -55.333 38 -90h-256z" />
    <glyph glyph-name="Oacute" unicode="&#xd3;" 
d="M384 128v384h-256v-384h256zM128 0c-36 0 -66.332 12.334 -90.999 37.001c-24.667 25.333 -37 55.666 -37 90.999v384c0 35.333 12.333 65.333 37 90c25.333 25.333 55.666 38 90.999 38h256c35.333 0 65.333 -12.667 90 -38c25.333 -25.333 38 -55.333 38 -90v-384
c0 -36 -12.667 -66.333 -38 -91s-55.333 -37 -90 -37h-256zM256.001 768.001c0 35.333 12.334 65.333 37.001 90c25.333 25.333 55.666 38 90.999 38h128v-128h-256z" />
    <glyph glyph-name="Ocircumflex" unicode="&#xd4;" 
d="M384 128v384h-256v-384h256zM128 0c-36 0 -66.332 12.334 -90.999 37.001c-24.667 25.333 -37 55.666 -37 90.999v384c0 35.333 12.333 65.333 37 90c25.333 25.333 55.666 38 90.999 38h256c35.333 0 65.333 -12.667 90 -38c25.333 -25.333 38 -55.333 38 -90v-384
c0 -36 -12.667 -66.333 -38 -91s-55.333 -37 -90 -37h-256zM0.000976562 768.001c0 35.333 12.334 65.333 37.001 90c25.333 25.333 55.666 38 90.999 38h256c35.333 0 65.333 -12.667 90 -38c25.333 -25.333 38 -55.333 38 -90h-512z" />
    <glyph glyph-name="Otilde" unicode="&#xd5;" 
d="M384 128v384h-256v-384h256zM128 0c-36 0 -66.332 12.334 -90.999 37.001c-24.667 25.333 -37 55.666 -37 90.999v384c0 35.333 12.333 65.333 37 90c25.333 25.333 55.666 38 90.999 38h256c35.333 0 65.333 -12.667 90 -38c25.333 -25.333 38 -55.333 38 -90v-384
c0 -36 -12.667 -66.333 -38 -91s-55.333 -37 -90 -37h-256zM0.000976562 768.001c0 35.333 12.334 65.333 37.001 90c25.333 25.333 55.666 38 90.999 38c17.333 0 32.333 -6.33301 45 -19s19 -27.667 19 -45c0 -18 -6.33301 -33.333 -19 -46
c-12.667 -12 -27.667 -18 -45 -18h-128zM256.002 768.001c-18 0 -33.333 6 -46 18c-12 12.667 -18 28 -18 46c0 17.333 6 32.333 18 45c12.667 12.667 28 19 46 19h256c0 -36 -12.667 -66.333 -38 -91s-55.333 -37 -90 -37h-128z" />
    <glyph glyph-name="Odieresis" unicode="&#xd6;" 
d="M384 128v384h-256v-384h256zM128 0c-36 0 -66.332 12.334 -90.999 37.001c-24.667 25.333 -37 55.666 -37 90.999v384c0 35.333 12.333 65.333 37 90c25.333 25.333 55.666 38 90.999 38h256c35.333 0 65.333 -12.667 90 -38c25.333 -25.333 38 -55.333 38 -90v-384
c0 -36 -12.667 -66.333 -38 -91s-55.333 -37 -90 -37h-256zM64.001 768.001c-18 0 -33.333 6 -46 18c-12 12.667 -18 28 -18 46c0 17.333 6 32.333 18 45c12.667 12.667 28 19 46 19c17.333 0 32.333 -6.33301 45 -19s19 -27.667 19 -45c0 -18 -6.33301 -33.333 -19 -46
c-12.667 -12 -27.667 -18 -45 -18v0zM448.001 768.001c-18 0 -33.333 6 -46 18c-12 12.667 -18 28 -18 46c0 17.333 6 32.333 18 45c12.667 12.667 28 19 46 19c17.333 0 32.333 -6.33301 45 -19s19 -27.667 19 -45c0 -18 -6.33301 -33.333 -19 -46
c-12.667 -12 -27.667 -18 -45 -18v0z" />
    <glyph glyph-name="multiply" unicode="&#xd7;" horiz-adv-x="596" 
d="M0 128v128c0 17.333 6 32.333 18 45c12.667 12.667 28 19 46 19c-18 0 -33.333 6 -46 18c-12 12.667 -18 28 -18 46v128h128v-128h128v128h128v-128c0 -18 -6.33301 -33.333 -19 -46c-12.667 -12 -27.667 -18 -45 -18c17.333 0 32.333 -6.33301 45 -19s19 -27.667 19 -45
v-128h-128v128h-128v-128h-128z" />
    <glyph glyph-name="Oslash" unicode="&#xd8;" 
d="M384 128v256.001c-36 0 -66.333 12.333 -91 37c-24.667 25.333 -37 55.666 -37 90.999h-128v-256c35.333 0 65.333 -12.667 90 -38c25.333 -25.333 38 -55.333 38 -90h128zM128 0.000976562c-36 0 -66.332 12.334 -90.999 37.001c-24.667 25.333 -37 55.666 -37 90.999
v384c0 35.333 12.333 65.333 37 90c25.333 25.333 55.666 38 90.999 38h256c35.333 0 65.333 -12.667 90 -38c25.333 -25.333 38 -55.333 38 -90v-384c0 -36 -12.667 -66.333 -38 -91s-55.333 -37 -90 -37h-256z" />
    <glyph glyph-name="Ugrave" unicode="&#xd9;" 
d="M128 0c-36 0 -66.333 12.334 -91 37.001c-24.667 25.333 -37 55.666 -37 90.999v512h128v-512h256v512h128v-640h-384zM0 768.001v128h128c35.333 0 65.333 -12.667 90 -38c25.333 -25.333 38 -55.333 38 -90h-256z" />
    <glyph glyph-name="Uacute" unicode="&#xda;" 
d="M128 0c-36 0 -66.333 12.334 -91 37.001c-24.667 25.333 -37 55.666 -37 90.999v512h128v-512h256v512h128v-640h-384zM256 768.001c0 35.333 12.334 65.333 37.001 90c25.333 25.333 55.666 38 90.999 38h128v-128h-256z" />
    <glyph glyph-name="Ucircumflex" unicode="&#xdb;" 
d="M128 0c-36 0 -66.333 12.334 -91 37.001c-24.667 25.333 -37 55.666 -37 90.999v512h128v-512h256v512h128v-640h-384zM0 768.001c0 35.333 12.334 65.333 37.001 90c25.333 25.333 55.666 38 90.999 38h256c35.333 0 65.333 -12.667 90 -38
c25.333 -25.333 38 -55.333 38 -90h-512z" />
    <glyph glyph-name="Udieresis" unicode="&#xdc;" 
d="M128 0c-36 0 -66.333 12.334 -91 37.001c-24.667 25.333 -37 55.666 -37 90.999v512h128v-512h256v512h128v-640h-384zM64 768.001c-18 0 -33.333 6 -46 18c-12 12.667 -18 28 -18 46c0 17.333 6 32.333 18 45c12.667 12.667 28 19 46 19
c17.333 0 32.333 -6.33301 45 -19s19 -27.667 19 -45c0 -18 -6.33301 -33.333 -19 -46c-12.667 -12 -27.667 -18 -45 -18v0zM448 768.001c-18 0 -33.333 6 -46 18c-12 12.667 -18 28 -18 46c0 17.333 6 32.333 18 45c12.667 12.667 28 19 46 19
c17.333 0 32.333 -6.33301 45 -19s19 -27.667 19 -45c0 -18 -6.33301 -33.333 -19 -46c-12.667 -12 -27.667 -18 -45 -18v0z" />
    <glyph glyph-name="Yacute" unicode="&#xdd;" horiz-adv-x="596" 
d="M128 0l0.000976562 256.001c-36 0 -66.333 12.333 -91 37c-24.667 25.333 -37 55.666 -37 90.999v256h128v-256h128v256h-128c0 35.333 12.333 65.333 37 90c25.333 25.333 55.666 38 90.999 38h128v-384c0 -36 -12.667 -66.333 -38 -91s-55.333 -37 -90 -37v-256h-128z
" />
    <glyph glyph-name="Thorn" unicode="&#xde;" horiz-adv-x="596" 
d="M256 256v128h-128v-128h128zM0 0v640h128v-128h128c35.333 0 65.333 -12.667 90 -38c25.333 -25.333 38 -55.333 38 -90v-128c0 -36 -12.667 -66.333 -38 -91s-55.333 -37 -90 -37h-128v-128h-128z" />
    <glyph glyph-name="germandbls" unicode="&#xdf;" 
d="M256 384v128h-128v-128h128zM0 0l0.000976562 512c0 35.333 12.333 65.333 37 90c25.333 25.333 55.666 38 90.999 38h128c35.333 0 65.333 -12.667 90 -38c25.333 -25.333 38 -55.333 38 -90v-128c35.333 0 65.333 -12.667 90 -38c25.333 -25.333 38 -55.333 38 -90
v-128c0 -36 -12.667 -66.333 -38 -91s-55.333 -37 -90 -37h-128v128h128v128h-256v-256h-128z" />
    <glyph glyph-name="agrave" unicode="&#xe0;" 
d="M384 384v128h-256v-128h256zM0 0l0.000976562 512c0 35.333 12.333 65.333 37 90c25.333 25.333 55.666 38 90.999 38h256c35.333 0 65.333 -12.667 90 -38c25.333 -25.333 38 -55.333 38 -90v-512h-128v256h-256v-256h-128zM0.000976562 768v128h128
c35.333 0 65.333 -12.667 90 -38c25.333 -25.333 38 -55.333 38 -90h-256z" />
    <glyph glyph-name="aacute" unicode="&#xe1;" 
d="M384 384v128h-256v-128h256zM0 0l0.000976562 512c0 35.333 12.333 65.333 37 90c25.333 25.333 55.666 38 90.999 38h256c35.333 0 65.333 -12.667 90 -38c25.333 -25.333 38 -55.333 38 -90v-512h-128v256h-256v-256h-128zM256.001 768
c0 35.333 12.334 65.333 37.001 90c25.333 25.333 55.666 38 90.999 38h128v-128h-256z" />
    <glyph glyph-name="acircumflex" unicode="&#xe2;" 
d="M384 384v128h-256v-128h256zM0 0l0.000976562 512c0 35.333 12.333 65.333 37 90c25.333 25.333 55.666 38 90.999 38h256c35.333 0 65.333 -12.667 90 -38c25.333 -25.333 38 -55.333 38 -90v-512h-128v256h-256v-256h-128zM0.000976562 768
c0 35.333 12.334 65.333 37.001 90c25.333 25.333 55.666 38 90.999 38h256c35.333 0 65.333 -12.667 90 -38c25.333 -25.333 38 -55.333 38 -90h-512z" />
    <glyph glyph-name="atilde" unicode="&#xe3;" 
d="M384 384v128h-256v-128h256zM0 0l0.000976562 512c0 35.333 12.333 65.333 37 90c25.333 25.333 55.666 38 90.999 38h256c35.333 0 65.333 -12.667 90 -38c25.333 -25.333 38 -55.333 38 -90v-512h-128v256h-256v-256h-128zM0.000976562 768
c0 35.333 12.334 65.333 37.001 90c25.333 25.333 55.666 38 90.999 38c17.333 0 32.333 -6.33301 45 -19s19 -27.667 19 -45c0 -18 -6.33301 -33.333 -19 -46c-12.667 -12 -27.667 -18 -45 -18h-128zM256.002 768c-18 0 -33.333 6 -46 18c-12 12.667 -18 28 -18 46
c0 17.333 6 32.333 18 45c12.667 12.667 28 19 46 19h256c0 -36 -12.667 -66.333 -38 -91s-55.333 -37 -90 -37h-128z" />
    <glyph glyph-name="adieresis" unicode="&#xe4;" 
d="M384 384v128h-256v-128h256zM0 0l0.000976562 512c0 35.333 12.333 65.333 37 90c25.333 25.333 55.666 38 90.999 38h256c35.333 0 65.333 -12.667 90 -38c25.333 -25.333 38 -55.333 38 -90v-512h-128v256h-256v-256h-128zM64.001 768c-18 0 -33.333 6 -46 18
c-12 12.667 -18 28 -18 46c0 17.333 6 32.333 18 45c12.667 12.667 28 19 46 19c17.333 0 32.333 -6.33301 45 -19s19 -27.667 19 -45c0 -18 -6.33301 -33.333 -19 -46c-12.667 -12 -27.667 -18 -45 -18v0zM448.001 768c-18 0 -33.333 6 -46 18c-12 12.667 -18 28 -18 46
c0 17.333 6 32.333 18 45c12.667 12.667 28 19 46 19c17.333 0 32.333 -6.33301 45 -19s19 -27.667 19 -45c0 -18 -6.33301 -33.333 -19 -46c-12.667 -12 -27.667 -18 -45 -18v0z" />
    <glyph glyph-name="aring" unicode="&#xe5;" 
d="M384 384v128h-256v-128h256zM0 0l0.000976562 512c0 35.333 12.333 65.333 37 90c25.333 25.333 55.666 38 90.999 38h256c35.333 0 65.333 -12.667 90 -38c25.333 -25.333 38 -55.333 38 -90v-512h-128v256h-256v-256h-128zM192.001 768c-18 0 -33.333 6 -46 18
c-12 12.667 -18 28 -18 46c0 17.333 6 32.333 18 45c12.667 12.667 28 19 46 19c17.333 0 32.333 -6.33301 45 -19s19 -27.667 19 -45c0 -18 -6.33301 -33.333 -19 -46c-12.667 -12 -27.667 -18 -45 -18v0z" />
    <glyph glyph-name="ae" unicode="&#xe6;" horiz-adv-x="852" 
d="M256 384v128h-128v-128h128zM0 0l0.000976562 512.001c0 35.333 12.333 65.333 37 90c25.333 25.333 55.666 38 90.999 38h512v-128h-256v-128h256v-128h-256v-128h256v-128h-256c-36 0 -66.333 12.333 -91 37c-24.667 25.333 -37 55.666 -37 90.999v128h-128v-256h-128z
" />
    <glyph glyph-name="ccedilla" unicode="&#xe7;" 
d="M128 -128l0.000976562 128.001c-36 0 -66.333 12.333 -91 37c-24.667 25.333 -37 55.666 -37 90.999v384c0 35.333 12.333 65.333 37 90c25.333 25.333 55.666 38 90.999 38h256c35.333 0 65.333 -12.667 90 -38c25.333 -25.333 38 -55.333 38 -90v-128h-128v128h-256
v-384h256v128h128v-128c0 -36 -12.667 -66.333 -38 -91s-55.333 -37 -90 -37h-128c0 -35.333 -12.667 -65.333 -38 -90c-25.333 -25.333 -55.333 -38 -90 -38v0z" />
    <glyph glyph-name="egrave" unicode="&#xe8;" 
d="M128 0c-36 0 -66.332 12.334 -90.999 37.001c-24.667 25.333 -37 55.666 -37 90.999v384c0 35.333 12.333 65.333 37 90c25.333 25.333 55.666 38 90.999 38h384v-128h-384v-128h384v-128h-384v-128h384v-128h-384zM0.000976562 768.001v128h128
c35.333 0 65.333 -12.667 90 -38c25.333 -25.333 38 -55.333 38 -90h-256z" />
    <glyph glyph-name="eacute" unicode="&#xe9;" 
d="M128 0c-36 0 -66.332 12.334 -90.999 37.001c-24.667 25.333 -37 55.666 -37 90.999v384c0 35.333 12.333 65.333 37 90c25.333 25.333 55.666 38 90.999 38h384v-128h-384v-128h384v-128h-384v-128h384v-128h-384zM256.001 768.001c0 35.333 12.334 65.333 37.001 90
c25.333 25.333 55.666 38 90.999 38h128v-128h-256z" />
    <glyph glyph-name="ecircumflex" unicode="&#xea;" 
d="M128 0c-36 0 -66.332 12.334 -90.999 37.001c-24.667 25.333 -37 55.666 -37 90.999v384c0 35.333 12.333 65.333 37 90c25.333 25.333 55.666 38 90.999 38h384v-128h-384v-128h384v-128h-384v-128h384v-128h-384zM0.000976562 768.001
c0 35.333 12.334 65.333 37.001 90c25.333 25.333 55.666 38 90.999 38h256c35.333 0 65.333 -12.667 90 -38c25.333 -25.333 38 -55.333 38 -90h-512z" />
    <glyph glyph-name="edieresis" unicode="&#xeb;" 
d="M128 0c-36 0 -66.332 12.334 -90.999 37.001c-24.667 25.333 -37 55.666 -37 90.999v384c0 35.333 12.333 65.333 37 90c25.333 25.333 55.666 38 90.999 38h384v-128h-384v-128h384v-128h-384v-128h384v-128h-384zM64.001 768.001c-18 0 -33.333 6 -46 18
c-12 12.667 -18 28 -18 46c0 17.333 6 32.333 18 45c12.667 12.667 28 19 46 19c17.333 0 32.333 -6.33301 45 -19s19 -27.667 19 -45c0 -18 -6.33301 -33.333 -19 -46c-12.667 -12 -27.667 -18 -45 -18v0zM448.001 768.001c-18 0 -33.333 6 -46 18
c-12 12.667 -18 28 -18 46c0 17.333 6 32.333 18 45c12.667 12.667 28 19 46 19c17.333 0 32.333 -6.33301 45 -19s19 -27.667 19 -45c0 -18 -6.33301 -33.333 -19 -46c-12.667 -12 -27.667 -18 -45 -18v0z" />
    <glyph glyph-name="igrave" unicode="&#xec;" horiz-adv-x="468" 
d="M0 0v640h128v-640h-128zM0 768v128h128c35.333 0 65.333 -12.667 90 -38c25.333 -25.333 38 -55.333 38 -90h-256z" />
    <glyph glyph-name="iacute" unicode="&#xed;" horiz-adv-x="468" 
d="M0 0v640h128v-640h-128zM0 768c0 35.333 12.334 65.333 37.001 90c25.333 25.333 55.666 38 90.999 38h128v-128h-256z" />
    <glyph glyph-name="icircumflex" unicode="&#xee;" horiz-adv-x="340" 
d="M0 0v640h128v-640h-128zM0 768c0 17.333 6 32.333 18 45c12.667 12.667 28 19 46 19c17.333 0 32.333 -6.33301 45 -19s19 -27.667 19 -45h-128z" />
    <glyph glyph-name="idieresis" unicode="&#xef;" horiz-adv-x="468" 
d="M0 0v640h128v-640h-128zM-64 768c-17.333 0 -32.333 6 -45 18c-12.667 12.667 -19 28 -19 46c0 17.333 6.33301 32.333 19 45s27.667 19 45 19c18 0 33.333 -6.33301 46 -19c12 -12.667 18 -27.667 18 -45c0 -18 -6 -33.333 -18 -46c-12.667 -12 -28 -18 -46 -18v0z
M192 768c-18 0 -33.333 6 -46 18c-12 12.667 -18 28 -18 46c0 17.333 6 32.333 18 45c12.667 12.667 28 19 46 19c17.333 0 32.333 -6.33301 45 -19s19 -27.667 19 -45c0 -18 -6.33301 -33.333 -19 -46c-12.667 -12 -27.667 -18 -45 -18v0z" />
    <glyph glyph-name="eth" unicode="&#xf0;" horiz-adv-x="852" 
d="M512 128v128h-384v-128h384zM128 0c-36 0 -66.3311 12.334 -90.998 37.001c-24.667 25.333 -37 55.666 -37 90.999v128c0 35.333 12.333 65.333 37 90c25.333 25.333 55.666 38 90.999 38h384v128h-128c0 -36 -12.667 -66.333 -38 -91s-55.333 -37 -90 -37v128h-128v128
h128c0 35.333 12.333 65.333 37 90c25.333 25.333 55.666 38 90.999 38v-128h128c35.333 0 65.333 -12.667 90 -38c25.333 -25.333 38 -55.333 38 -90v-384c0 -36 -12.667 -66.333 -38 -91s-55.333 -37 -90 -37h-384z" />
    <glyph glyph-name="ntilde" unicode="&#xf1;" 
d="M0 0v640h384c35.333 0 65.333 -12.667 90 -38c25.333 -25.333 38 -55.333 38 -90v-512h-128v512h-256v-512h-128zM0 768c0 35.333 12.334 65.333 37.001 90c25.333 25.333 55.666 38 90.999 38c17.333 0 32.333 -6.33301 45 -19s19 -27.667 19 -45
c0 -18 -6.33301 -33.333 -19 -46c-12.667 -12 -27.667 -18 -45 -18h-128zM256.001 768c-18 0 -33.333 6 -46 18c-12 12.667 -18 28 -18 46c0 17.333 6 32.333 18 45c12.667 12.667 28 19 46 19h256c0 -36 -12.667 -66.333 -38 -91s-55.333 -37 -90 -37h-128z" />
    <glyph glyph-name="ograve" unicode="&#xf2;" 
d="M384 128v384h-256v-384h256zM128 0c-36 0 -66.332 12.334 -90.999 37.001c-24.667 25.333 -37 55.666 -37 90.999v384c0 35.333 12.333 65.333 37 90c25.333 25.333 55.666 38 90.999 38h256c35.333 0 65.333 -12.667 90 -38c25.333 -25.333 38 -55.333 38 -90v-384
c0 -36 -12.667 -66.333 -38 -91s-55.333 -37 -90 -37h-256zM0.000976562 768.001v128h128c35.333 0 65.333 -12.667 90 -38c25.333 -25.333 38 -55.333 38 -90h-256z" />
    <glyph glyph-name="oacute" unicode="&#xf3;" 
d="M384 128v384h-256v-384h256zM128 0c-36 0 -66.332 12.334 -90.999 37.001c-24.667 25.333 -37 55.666 -37 90.999v384c0 35.333 12.333 65.333 37 90c25.333 25.333 55.666 38 90.999 38h256c35.333 0 65.333 -12.667 90 -38c25.333 -25.333 38 -55.333 38 -90v-384
c0 -36 -12.667 -66.333 -38 -91s-55.333 -37 -90 -37h-256zM256.001 768.001c0 35.333 12.334 65.333 37.001 90c25.333 25.333 55.666 38 90.999 38h128v-128h-256z" />
    <glyph glyph-name="ocircumflex" unicode="&#xf4;" 
d="M384 128v384h-256v-384h256zM128 0c-36 0 -66.332 12.334 -90.999 37.001c-24.667 25.333 -37 55.666 -37 90.999v384c0 35.333 12.333 65.333 37 90c25.333 25.333 55.666 38 90.999 38h256c35.333 0 65.333 -12.667 90 -38c25.333 -25.333 38 -55.333 38 -90v-384
c0 -36 -12.667 -66.333 -38 -91s-55.333 -37 -90 -37h-256zM0.000976562 768.001c0 35.333 12.334 65.333 37.001 90c25.333 25.333 55.666 38 90.999 38h256c35.333 0 65.333 -12.667 90 -38c25.333 -25.333 38 -55.333 38 -90h-512z" />
    <glyph glyph-name="otilde" unicode="&#xf5;" 
d="M384 128v384h-256v-384h256zM128 0c-36 0 -66.332 12.334 -90.999 37.001c-24.667 25.333 -37 55.666 -37 90.999v384c0 35.333 12.333 65.333 37 90c25.333 25.333 55.666 38 90.999 38h256c35.333 0 65.333 -12.667 90 -38c25.333 -25.333 38 -55.333 38 -90v-384
c0 -36 -12.667 -66.333 -38 -91s-55.333 -37 -90 -37h-256zM0.000976562 768.001c0 35.333 12.334 65.333 37.001 90c25.333 25.333 55.666 38 90.999 38c17.333 0 32.333 -6.33301 45 -19s19 -27.667 19 -45c0 -18 -6.33301 -33.333 -19 -46
c-12.667 -12 -27.667 -18 -45 -18h-128zM256.002 768.001c-18 0 -33.333 6 -46 18c-12 12.667 -18 28 -18 46c0 17.333 6 32.333 18 45c12.667 12.667 28 19 46 19h256c0 -36 -12.667 -66.333 -38 -91s-55.333 -37 -90 -37h-128z" />
    <glyph glyph-name="odieresis" unicode="&#xf6;" 
d="M384 128v384h-256v-384h256zM128 0c-36 0 -66.332 12.334 -90.999 37.001c-24.667 25.333 -37 55.666 -37 90.999v384c0 35.333 12.333 65.333 37 90c25.333 25.333 55.666 38 90.999 38h256c35.333 0 65.333 -12.667 90 -38c25.333 -25.333 38 -55.333 38 -90v-384
c0 -36 -12.667 -66.333 -38 -91s-55.333 -37 -90 -37h-256zM64.001 768.001c-18 0 -33.333 6 -46 18c-12 12.667 -18 28 -18 46c0 17.333 6 32.333 18 45c12.667 12.667 28 19 46 19c17.333 0 32.333 -6.33301 45 -19s19 -27.667 19 -45c0 -18 -6.33301 -33.333 -19 -46
c-12.667 -12 -27.667 -18 -45 -18v0zM448.001 768.001c-18 0 -33.333 6 -46 18c-12 12.667 -18 28 -18 46c0 17.333 6 32.333 18 45c12.667 12.667 28 19 46 19c17.333 0 32.333 -6.33301 45 -19s19 -27.667 19 -45c0 -18 -6.33301 -33.333 -19 -46
c-12.667 -12 -27.667 -18 -45 -18v0z" />
    <glyph glyph-name="divide" unicode="&#xf7;" horiz-adv-x="852" 
d="M320 0c-18 0 -33.333 6 -46 18c-12 12.667 -18 28 -18 46c0 17.333 6 32.333 18 45c12.667 12.667 28 19 46 19c17.333 0 32.333 -6.33301 45 -19s19 -27.667 19 -45c0 -18 -6.33301 -33.333 -19 -46c-12.667 -12 -27.667 -18 -45 -18v0zM0 256v128h640v-128h-640z
M320 512c-18 0 -33.333 6 -46 18c-12 12.667 -18 28 -18 46c0 17.333 6 32.333 18 45c12.667 12.667 28 19 46 19c17.333 0 32.333 -6.33301 45 -19s19 -27.667 19 -45c0 -18 -6.33301 -33.333 -19 -46c-12.667 -12 -27.667 -18 -45 -18v0z" />
    <glyph glyph-name="oslash" unicode="&#xf8;" 
d="M384 128v256.001c-36 0 -66.333 12.333 -91 37c-24.667 25.333 -37 55.666 -37 90.999h-128v-256c35.333 0 65.333 -12.667 90 -38c25.333 -25.333 38 -55.333 38 -90h128zM128 0.000976562c-36 0 -66.332 12.334 -90.999 37.001c-24.667 25.333 -37 55.666 -37 90.999
v384c0 35.333 12.333 65.333 37 90c25.333 25.333 55.666 38 90.999 38h256c35.333 0 65.333 -12.667 90 -38c25.333 -25.333 38 -55.333 38 -90v-384c0 -36 -12.667 -66.333 -38 -91s-55.333 -37 -90 -37h-256z" />
    <glyph glyph-name="ugrave" unicode="&#xf9;" 
d="M128 0c-36 0 -66.333 12.334 -91 37.001c-24.667 25.333 -37 55.666 -37 90.999v512h128v-512h256v512h128v-640h-384zM0 768.001v128h128c35.333 0 65.333 -12.667 90 -38c25.333 -25.333 38 -55.333 38 -90h-256z" />
    <glyph glyph-name="uacute" unicode="&#xfa;" 
d="M128 0c-36 0 -66.333 12.334 -91 37.001c-24.667 25.333 -37 55.666 -37 90.999v512h128v-512h256v512h128v-640h-384zM256 768.001c0 35.333 12.334 65.333 37.001 90c25.333 25.333 55.666 38 90.999 38h128v-128h-256z" />
    <glyph glyph-name="ucircumflex" unicode="&#xfb;" 
d="M128 0c-36 0 -66.333 12.334 -91 37.001c-24.667 25.333 -37 55.666 -37 90.999v512h128v-512h256v512h128v-640h-384zM0 768.001c0 35.333 12.334 65.333 37.001 90c25.333 25.333 55.666 38 90.999 38h256c35.333 0 65.333 -12.667 90 -38
c25.333 -25.333 38 -55.333 38 -90h-512z" />
    <glyph glyph-name="udieresis" unicode="&#xfc;" 
d="M128 0c-36 0 -66.333 12.334 -91 37.001c-24.667 25.333 -37 55.666 -37 90.999v512h128v-512h256v512h128v-640h-384zM64 768.001c-18 0 -33.333 6 -46 18c-12 12.667 -18 28 -18 46c0 17.333 6 32.333 18 45c12.667 12.667 28 19 46 19
c17.333 0 32.333 -6.33301 45 -19s19 -27.667 19 -45c0 -18 -6.33301 -33.333 -19 -46c-12.667 -12 -27.667 -18 -45 -18v0zM448 768.001c-18 0 -33.333 6 -46 18c-12 12.667 -18 28 -18 46c0 17.333 6 32.333 18 45c12.667 12.667 28 19 46 19
c17.333 0 32.333 -6.33301 45 -19s19 -27.667 19 -45c0 -18 -6.33301 -33.333 -19 -46c-12.667 -12 -27.667 -18 -45 -18v0z" />
    <glyph glyph-name="yacute" unicode="&#xfd;" horiz-adv-x="596" 
d="M128 0l0.000976562 256.001c-36 0 -66.333 12.333 -91 37c-24.667 25.333 -37 55.666 -37 90.999v256h128v-256h128v256h-128c0 35.333 12.333 65.333 37 90c25.333 25.333 55.666 38 90.999 38h128v-384c0 -36 -12.667 -66.333 -38 -91s-55.333 -37 -90 -37v-256h-128z
" />
    <glyph glyph-name="thorn" unicode="&#xfe;" horiz-adv-x="596" 
d="M256 256v128h-128v-128h128zM0 0v640h128v-128h128c35.333 0 65.333 -12.667 90 -38c25.333 -25.333 38 -55.333 38 -90v-128c0 -36 -12.667 -66.333 -38 -91s-55.333 -37 -90 -37h-128v-128h-128z" />
    <glyph glyph-name="ydieresis" unicode="&#xff;" horiz-adv-x="596" 
d="M128 0v256.001c-36 0 -66.333 12.333 -91 37c-24.667 25.333 -37 55.666 -37 90.999v256h128v-256h128v256h128v-256c0 -36 -12.667 -66.333 -38 -91s-55.333 -37 -90 -37v-256h-128z" />
    <glyph glyph-name="Uring" unicode="&#x16e;" horiz-adv-x="852" 
d="M128 0c-36 0 -66.333 12.334 -91 37.001c-24.667 25.333 -37 55.666 -37 90.999v512h128v-512h384v512h128v-640h-512z" />
    <glyph glyph-name="uring" unicode="&#x16f;" horiz-adv-x="852" 
d="M128 0c-36 0 -66.333 12.334 -91 37.001c-24.667 25.333 -37 55.666 -37 90.999v512h128v-512h384v512h128v-640h-512z" />
    <glyph glyph-name="Ydieresis" unicode="&#x178;" horiz-adv-x="596" 
d="M128 0v256.001c-36 0 -66.333 12.333 -91 37c-24.667 25.333 -37 55.666 -37 90.999v128h128v-128h128v128h128v-128c0 -36 -12.667 -66.333 -38 -91s-55.333 -37 -90 -37v-256h-128zM64 640.001c-18 0 -33.333 6 -46 18c-12 12.667 -18 28 -18 46
c0 17.333 6 32.333 18 45c12.667 12.667 28 19 46 19c17.333 0 32.333 -6.33301 45 -19s19 -27.667 19 -45c0 -18 -6.33301 -33.333 -19 -46c-12.667 -12 -27.667 -18 -45 -18v0zM320 640.001c-18 0 -33.333 6 -46 18c-12 12.667 -18 28 -18 46c0 17.333 6 32.333 18 45
c12.667 12.667 28 19 46 19c17.333 0 32.333 -6.33301 45 -19s19 -27.667 19 -45c0 -18 -6.33301 -33.333 -19 -46c-12.667 -12 -27.667 -18 -45 -18v0z" />
    <glyph glyph-name="uni1E9E" unicode="&#x1e9e;" 
d="M256 384v128h-128v-128h128zM0 0l0.000976562 512c0 35.333 12.333 65.333 37 90c25.333 25.333 55.666 38 90.999 38h128c35.333 0 65.333 -12.667 90 -38c25.333 -25.333 38 -55.333 38 -90v-128c35.333 0 65.333 -12.667 90 -38c25.333 -25.333 38 -55.333 38 -90
v-128c0 -36 -12.667 -66.333 -38 -91s-55.333 -37 -90 -37h-128v128h128v128h-256v-256h-128z" />
    <glyph glyph-name="emdash" unicode="&#x2014;" horiz-adv-x="852" 
d="M0 256v128h640v-128h-640z" />
    <glyph glyph-name="quoteleft" unicode="&#x2018;" horiz-adv-x="340" 
d="M0 384l0.000976562 128c0 35.333 12.333 65.333 37 90c25.333 25.333 55.666 38 90.999 38v-256h-128z" />
    <glyph glyph-name="quoteright" unicode="&#x2019;" horiz-adv-x="340" 
d="M0 384v256h128v-128c0 -36 -12.667 -66.333 -38 -91s-55.333 -37 -90 -37v0z" />
    <glyph glyph-name="quotesinglbase" unicode="&#x201a;" horiz-adv-x="340" 
d="M0 -128v256h128v-128c0 -35.333 -12.667 -65.333 -38 -90c-25.333 -25.333 -55.333 -38 -90 -38v0z" />
    <glyph glyph-name="quotereversed" unicode="&#x201b;" horiz-adv-x="340" 
d="M128 384c-36 0 -66.333 12.334 -91 37.001c-24.667 25.333 -37 55.666 -37 90.999v128h128v-256v0z" />
    <glyph glyph-name="quotedblleft" unicode="&#x201c;" horiz-adv-x="596" 
d="M0 384l0.000976562 128c0 35.333 12.333 65.333 37 90c25.333 25.333 55.666 38 90.999 38v-256h-128zM256.001 384l0.000976562 128c0 35.333 12.333 65.333 37 90c25.333 25.333 55.666 38 90.999 38v-256h-128z" />
    <glyph glyph-name="quotedblright" unicode="&#x201d;" horiz-adv-x="596" 
d="M0 384v256h128v-128c0 -36 -12.667 -66.333 -38 -91s-55.333 -37 -90 -37v0zM256 384v256h128v-128c0 -36 -12.667 -66.333 -38 -91s-55.333 -37 -90 -37v0z" />
    <glyph glyph-name="quotedblbase" unicode="&#x201e;" horiz-adv-x="596" 
d="M0 -128v256h128v-128c0 -35.333 -12.667 -65.333 -38 -90c-25.333 -25.333 -55.333 -38 -90 -38v0zM256 -128v256h128v-128c0 -35.333 -12.667 -65.333 -38 -90c-25.333 -25.333 -55.333 -38 -90 -38v0z" />
    <glyph glyph-name="dagger" unicode="&#x2020;" horiz-adv-x="596" 
d="M128 0v384h-128v128h128v256h128v-256h128v-128h-128v-384h-128z" />
    <glyph glyph-name="bullet" unicode="&#x2022;" horiz-adv-x="340" 
d="M64 256c-18 0 -33.333 6 -46 18c-12 12.667 -18 28 -18 46c0 17.333 6 32.333 18 45c12.667 12.667 28 19 46 19c17.333 0 32.333 -6.33301 45 -19s19 -27.667 19 -45c0 -18 -6.33301 -33.333 -19 -46c-12.667 -12 -27.667 -18 -45 -18v0z" />
    <glyph glyph-name="ellipsis" unicode="&#x2026;" horiz-adv-x="852" 
d="M64 0c-18 0 -33.333 6 -46 18c-12 12.667 -18 28 -18 46c0 17.333 6 32.333 18 45c12.667 12.667 28 19 46 19c17.333 0 32.333 -6.33301 45 -19s19 -27.667 19 -45c0 -18 -6.33301 -33.333 -19 -46c-12.667 -12 -27.667 -18 -45 -18v0zM320 0c-18 0 -33.333 6 -46 18
c-12 12.667 -18 28 -18 46c0 17.333 6 32.333 18 45c12.667 12.667 28 19 46 19c17.333 0 32.333 -6.33301 45 -19s19 -27.667 19 -45c0 -18 -6.33301 -33.333 -19 -46c-12.667 -12 -27.667 -18 -45 -18v0zM576 0c-18 0 -33.333 6 -46 18c-12 12.667 -18 28 -18 46
c0 17.333 6 32.333 18 45c12.667 12.667 28 19 46 19c17.333 0 32.333 -6.33301 45 -19s19 -27.667 19 -45c0 -18 -6.33301 -33.333 -19 -46c-12.667 -12 -27.667 -18 -45 -18v0z" />
    <glyph glyph-name="guilsinglleft" unicode="&#x2039;" horiz-adv-x="468" 
d="M128 0c-36 0 -66.332 12.334 -90.999 37.001c-24.667 25.333 -37 55.666 -37 90.999v128c0 35.333 12.333 65.333 37 90c25.333 25.333 55.666 38 90.999 38h128v-128h-128v-128h128v-128h-128z" />
    <glyph glyph-name="guilsinglright" unicode="&#x203a;" horiz-adv-x="468" 
d="M0 0v128h128v128h-128v128h128c35.333 0 65.333 -12.667 90 -38c25.333 -25.333 38 -55.333 38 -90v-128c0 -36 -12.667 -66.333 -38 -91s-55.333 -37 -90 -37h-128z" />
    <glyph glyph-name="Euro" unicode="&#x20ac;" 
d="M128 0c-36 0 -66.332 12.334 -90.999 37.001c-24.667 25.333 -37 55.666 -37 90.999v128h-128v128h128v128c0 35.333 12.333 65.333 37 90c25.333 25.333 55.666 38 90.999 38h384v-128h-384v-128h256v-128h-256v-128h384v-128h-384z" />
    <glyph glyph-name="trademark" unicode="&#x2122;" horiz-adv-x="596" 
d="M128 256v128h-128v128h256c35.333 0 65.333 -12.667 90 -38c25.333 -25.333 38 -55.333 38 -90v-128h-256z" />
    <glyph glyph-name="uniFB00" unicode="&#xfb00;" horiz-adv-x="852" 
d="M0 0l0.00195312 512c0 35.333 12.333 65.333 37 90c25.333 25.333 55.666 38 90.999 38h128v-128h-128v-128h256v128c0 35.333 12.333 65.333 37 90c25.333 25.333 55.666 38 90.999 38h128v-128h-128v-128h128v-128h-128v-256h-128v256h-256v-256h-128z" />
    <glyph glyph-name="uniFB01" unicode="&#xfb01;" 
d="M0 0l0.000976562 512c0 35.333 12.333 65.333 37 90c25.333 25.333 55.666 38 90.999 38h128v-128h-128v-128h384v-384h-128v256h-256v-256h-128zM448.001 512c-18 0 -33.333 6 -46 18c-12 12.667 -18 28 -18 46c0 17.333 6 32.333 18 45c12.667 12.667 28 19 46 19
c17.333 0 32.333 -6.33301 45 -19s19 -27.667 19 -45c0 -18 -6.33301 -33.333 -19 -46c-12.667 -12 -27.667 -18 -45 -18v0z" />
    <glyph glyph-name="uniFB02" unicode="&#xfb02;" 
d="M0 0l0.000976562 512c0 35.333 12.333 65.333 37 90c25.333 25.333 55.666 38 90.999 38h128v-128h-128v-128h256v256h128v-640h-128v256h-256v-256h-128z" />
    <glyph glyph-name="uniFB03" unicode="&#xfb03;" horiz-adv-x="1108" 
d="M0 0l0.00195312 512c0 35.333 12.333 65.333 37 90c25.333 25.333 55.666 38 90.999 38h128v-128h-128v-128h256v128c0 35.333 12.333 65.333 37 90c25.333 25.333 55.666 38 90.999 38h128v-128h-128v-128h384v-384h-128v256h-256v-256h-128v256h-256v-256h-128z
M832.002 512c-18 0 -33.333 6 -46 18c-12 12.667 -18 28 -18 46c0 17.333 6 32.333 18 45c12.667 12.667 28 19 46 19c17.333 0 32.333 -6.33301 45 -19s19 -27.667 19 -45c0 -18 -6.33301 -33.333 -19 -46c-12.667 -12 -27.667 -18 -45 -18v0z" />
    <glyph glyph-name="uniFB04" unicode="&#xfb04;" horiz-adv-x="1108" 
d="M0 0l0.00195312 512c0 35.333 12.333 65.333 37 90c25.333 25.333 55.666 38 90.999 38h128v-128h-128v-128h256v128c0 35.333 12.333 65.333 37 90c25.333 25.333 55.666 38 90.999 38h128v-128h-128v-128h256v256h128v-640h-128v256h-256v-256h-128v256h-256v-256h-128
z" />
    <glyph glyph-name="uniFB06" unicode="&#xfb06;" horiz-adv-x="852" 
d="M0 0l0.000976562 128.001h128c-36 0 -66.333 12.333 -91 37c-24.667 25.333 -37 55.666 -37 90.999s12.333 65.333 37 90c25.333 25.333 55.666 38 90.999 38h512v-128h-128v-256h-128v256h-256c35.333 0 65.333 -12.667 90 -38c25.333 -25.333 38 -55.333 38 -90
c0 -36 -12.667 -66.333 -38 -91s-55.333 -37 -90 -37h-128z" />
    <glyph glyph-name="glyph1" horiz-adv-x="84" 
 />
    <glyph glyph-name="glyph2" horiz-adv-x="256" 
 />
  </font>
</defs>
</svg>
